<?xml version="1.0" encoding="utf-8" standalone="no"?>
<!DOCTYPE svg PUBLIC "-//W3C//DTD SVG 1.1//EN"
  "http://www.w3.org/Graphics/SVG/1.1/DTD/svg11.dtd">
<svg xmlns:xlink="http://www.w3.org/1999/xlink" width="460.8pt" height="345.6pt" viewBox="0 0 460.8 345.6" xmlns="http://www.w3.org/2000/svg" version="1.1">
 <metadata>
  <rdf:RDF xmlns:dc="http://purl.org/dc/elements/1.1/" xmlns:cc="http://creativecommons.org/ns#" xmlns:rdf="http://www.w3.org/1999/02/22-rdf-syntax-ns#">
   <cc:Work>
    <dc:type rdf:resource="http://purl.org/dc/dcmitype/StillImage"/>
    <dc:date>2022-12-29T12:13:44.888329</dc:date>
    <dc:format>image/svg+xml</dc:format>
    <dc:creator>
     <cc:Agent>
      <dc:title>Matplotlib v3.6.2, https://matplotlib.org/</dc:title>
     </cc:Agent>
    </dc:creator>
   </cc:Work>
  </rdf:RDF>
 </metadata>
 <defs>
  <style type="text/css">*{stroke-linejoin: round; stroke-linecap: butt}</style>
 </defs>
 <g id="figure_1">
  <g id="patch_1">
   <path d="M 0 345.6 
L 460.8 345.6 
L 460.8 0 
L 0 0 
z
" style="fill: #ffffff"/>
  </g>
  <g id="axes_1">
   <g id="patch_2">
    <path d="M 57.6 307.584 
L 414.72 307.584 
L 414.72 41.472 
L 57.6 41.472 
z
" style="fill: #ffffff"/>
   </g>
   <g id="PathCollection_1">
    <defs>
     <path id="mf2fd711f4e" d="M 0 3 
C 0.795609 3 1.55874 2.683901 2.12132 2.12132 
C 2.683901 1.55874 3 0.795609 3 0 
C 3 -0.795609 2.683901 -1.55874 2.12132 -2.12132 
C 1.55874 -2.683901 0.795609 -3 0 -3 
C -0.795609 -3 -1.55874 -2.683901 -2.12132 -2.12132 
C -2.683901 -1.55874 -3 -0.795609 -3 0 
C -3 0.795609 -2.683901 1.55874 -2.12132 2.12132 
C -1.55874 2.683901 -0.795609 3 0 3 
z
" style="stroke: #1f77b4"/>
    </defs>
    <g clip-path="url(#pcce513d6cf)">
     <use xlink:href="#mf2fd711f4e" x="73.832727" y="61.85083" style="fill: #1f77b4; stroke: #1f77b4"/>
     <use xlink:href="#mf2fd711f4e" x="77.079273" y="53.568" style="fill: #1f77b4; stroke: #1f77b4"/>
     <use xlink:href="#mf2fd711f4e" x="80.325818" y="71.856555" style="fill: #1f77b4; stroke: #1f77b4"/>
     <use xlink:href="#mf2fd711f4e" x="83.572364" y="95.163391" style="fill: #1f77b4; stroke: #1f77b4"/>
     <use xlink:href="#mf2fd711f4e" x="86.818909" y="122.037785" style="fill: #1f77b4; stroke: #1f77b4"/>
     <use xlink:href="#mf2fd711f4e" x="90.065455" y="132.918992" style="fill: #1f77b4; stroke: #1f77b4"/>
     <use xlink:href="#mf2fd711f4e" x="93.312" y="149.656319" style="fill: #1f77b4; stroke: #1f77b4"/>
     <use xlink:href="#mf2fd711f4e" x="96.558545" y="148.465341" style="fill: #1f77b4; stroke: #1f77b4"/>
     <use xlink:href="#mf2fd711f4e" x="99.805091" y="154.530527" style="fill: #1f77b4; stroke: #1f77b4"/>
     <use xlink:href="#mf2fd711f4e" x="103.051636" y="144.645454" style="fill: #1f77b4; stroke: #1f77b4"/>
     <use xlink:href="#mf2fd711f4e" x="106.298182" y="135.241294" style="fill: #1f77b4; stroke: #1f77b4"/>
     <use xlink:href="#mf2fd711f4e" x="109.544727" y="118.321379" style="fill: #1f77b4; stroke: #1f77b4"/>
     <use xlink:href="#mf2fd711f4e" x="112.791273" y="122.291269" style="fill: #1f77b4; stroke: #1f77b4"/>
     <use xlink:href="#mf2fd711f4e" x="116.037818" y="139.779338" style="fill: #1f77b4; stroke: #1f77b4"/>
     <use xlink:href="#mf2fd711f4e" x="119.284364" y="160.110373" style="fill: #1f77b4; stroke: #1f77b4"/>
     <use xlink:href="#mf2fd711f4e" x="122.530909" y="188.382456" style="fill: #1f77b4; stroke: #1f77b4"/>
     <use xlink:href="#mf2fd711f4e" x="125.777455" y="218.563265" style="fill: #1f77b4; stroke: #1f77b4"/>
     <use xlink:href="#mf2fd711f4e" x="129.024" y="247.08923" style="fill: #1f77b4; stroke: #1f77b4"/>
     <use xlink:href="#mf2fd711f4e" x="132.270545" y="256.630322" style="fill: #1f77b4; stroke: #1f77b4"/>
     <use xlink:href="#mf2fd711f4e" x="135.517091" y="265.093773" style="fill: #1f77b4; stroke: #1f77b4"/>
     <use xlink:href="#mf2fd711f4e" x="138.763636" y="252.978696" style="fill: #1f77b4; stroke: #1f77b4"/>
     <use xlink:href="#mf2fd711f4e" x="142.010182" y="230.005386" style="fill: #1f77b4; stroke: #1f77b4"/>
     <use xlink:href="#mf2fd711f4e" x="145.256727" y="202.320383" style="fill: #1f77b4; stroke: #1f77b4"/>
     <use xlink:href="#mf2fd711f4e" x="148.503273" y="167.514882" style="fill: #1f77b4; stroke: #1f77b4"/>
     <use xlink:href="#mf2fd711f4e" x="151.749818" y="146.622789" style="fill: #1f77b4; stroke: #1f77b4"/>
     <use xlink:href="#mf2fd711f4e" x="154.996364" y="141.039702" style="fill: #1f77b4; stroke: #1f77b4"/>
     <use xlink:href="#mf2fd711f4e" x="158.242909" y="134.30679" style="fill: #1f77b4; stroke: #1f77b4"/>
     <use xlink:href="#mf2fd711f4e" x="161.489455" y="155.732905" style="fill: #1f77b4; stroke: #1f77b4"/>
     <use xlink:href="#mf2fd711f4e" x="164.736" y="176.904655" style="fill: #1f77b4; stroke: #1f77b4"/>
     <use xlink:href="#mf2fd711f4e" x="167.982545" y="197.33797" style="fill: #1f77b4; stroke: #1f77b4"/>
     <use xlink:href="#mf2fd711f4e" x="171.229091" y="226.675651" style="fill: #1f77b4; stroke: #1f77b4"/>
     <use xlink:href="#mf2fd711f4e" x="174.475636" y="239.860953" style="fill: #1f77b4; stroke: #1f77b4"/>
     <use xlink:href="#mf2fd711f4e" x="177.722182" y="247.20111" style="fill: #1f77b4; stroke: #1f77b4"/>
     <use xlink:href="#mf2fd711f4e" x="180.968727" y="243.486827" style="fill: #1f77b4; stroke: #1f77b4"/>
     <use xlink:href="#mf2fd711f4e" x="184.215273" y="222.14825" style="fill: #1f77b4; stroke: #1f77b4"/>
     <use xlink:href="#mf2fd711f4e" x="187.461818" y="210.371924" style="fill: #1f77b4; stroke: #1f77b4"/>
     <use xlink:href="#mf2fd711f4e" x="190.708364" y="185.289256" style="fill: #1f77b4; stroke: #1f77b4"/>
     <use xlink:href="#mf2fd711f4e" x="193.954909" y="164.204037" style="fill: #1f77b4; stroke: #1f77b4"/>
     <use xlink:href="#mf2fd711f4e" x="197.201455" y="162.78546" style="fill: #1f77b4; stroke: #1f77b4"/>
     <use xlink:href="#mf2fd711f4e" x="200.448" y="163.428878" style="fill: #1f77b4; stroke: #1f77b4"/>
     <use xlink:href="#mf2fd711f4e" x="203.694545" y="171.264285" style="fill: #1f77b4; stroke: #1f77b4"/>
     <use xlink:href="#mf2fd711f4e" x="206.941091" y="192.227386" style="fill: #1f77b4; stroke: #1f77b4"/>
     <use xlink:href="#mf2fd711f4e" x="210.187636" y="214.030937" style="fill: #1f77b4; stroke: #1f77b4"/>
     <use xlink:href="#mf2fd711f4e" x="213.434182" y="212.75626" style="fill: #1f77b4; stroke: #1f77b4"/>
     <use xlink:href="#mf2fd711f4e" x="216.680727" y="220.573746" style="fill: #1f77b4; stroke: #1f77b4"/>
     <use xlink:href="#mf2fd711f4e" x="219.927273" y="212.232059" style="fill: #1f77b4; stroke: #1f77b4"/>
     <use xlink:href="#mf2fd711f4e" x="223.173818" y="195.232672" style="fill: #1f77b4; stroke: #1f77b4"/>
     <use xlink:href="#mf2fd711f4e" x="226.420364" y="170.686111" style="fill: #1f77b4; stroke: #1f77b4"/>
     <use xlink:href="#mf2fd711f4e" x="229.666909" y="155.256287" style="fill: #1f77b4; stroke: #1f77b4"/>
     <use xlink:href="#mf2fd711f4e" x="232.913455" y="139.824036" style="fill: #1f77b4; stroke: #1f77b4"/>
     <use xlink:href="#mf2fd711f4e" x="236.16" y="153.993254" style="fill: #1f77b4; stroke: #1f77b4"/>
     <use xlink:href="#mf2fd711f4e" x="239.406545" y="156.481053" style="fill: #1f77b4; stroke: #1f77b4"/>
     <use xlink:href="#mf2fd711f4e" x="242.653091" y="181.164367" style="fill: #1f77b4; stroke: #1f77b4"/>
     <use xlink:href="#mf2fd711f4e" x="245.899636" y="212.404503" style="fill: #1f77b4; stroke: #1f77b4"/>
     <use xlink:href="#mf2fd711f4e" x="249.146182" y="244.63679" style="fill: #1f77b4; stroke: #1f77b4"/>
     <use xlink:href="#mf2fd711f4e" x="252.392727" y="271.247323" style="fill: #1f77b4; stroke: #1f77b4"/>
     <use xlink:href="#mf2fd711f4e" x="255.639273" y="295.488" style="fill: #1f77b4; stroke: #1f77b4"/>
     <use xlink:href="#mf2fd711f4e" x="258.885818" y="289.735242" style="fill: #1f77b4; stroke: #1f77b4"/>
     <use xlink:href="#mf2fd711f4e" x="262.132364" y="285.52897" style="fill: #1f77b4; stroke: #1f77b4"/>
     <use xlink:href="#mf2fd711f4e" x="265.378909" y="259.33277" style="fill: #1f77b4; stroke: #1f77b4"/>
     <use xlink:href="#mf2fd711f4e" x="268.625455" y="221.743955" style="fill: #1f77b4; stroke: #1f77b4"/>
     <use xlink:href="#mf2fd711f4e" x="271.872" y="189.745865" style="fill: #1f77b4; stroke: #1f77b4"/>
     <use xlink:href="#mf2fd711f4e" x="275.118545" y="167.143571" style="fill: #1f77b4; stroke: #1f77b4"/>
     <use xlink:href="#mf2fd711f4e" x="278.365091" y="148.00274" style="fill: #1f77b4; stroke: #1f77b4"/>
     <use xlink:href="#mf2fd711f4e" x="281.611636" y="145.364192" style="fill: #1f77b4; stroke: #1f77b4"/>
     <use xlink:href="#mf2fd711f4e" x="284.858182" y="158.291187" style="fill: #1f77b4; stroke: #1f77b4"/>
     <use xlink:href="#mf2fd711f4e" x="288.104727" y="163.950305" style="fill: #1f77b4; stroke: #1f77b4"/>
     <use xlink:href="#mf2fd711f4e" x="291.351273" y="191.051145" style="fill: #1f77b4; stroke: #1f77b4"/>
     <use xlink:href="#mf2fd711f4e" x="294.597818" y="189.600846" style="fill: #1f77b4; stroke: #1f77b4"/>
     <use xlink:href="#mf2fd711f4e" x="297.844364" y="200.500747" style="fill: #1f77b4; stroke: #1f77b4"/>
     <use xlink:href="#mf2fd711f4e" x="301.090909" y="190.85572" style="fill: #1f77b4; stroke: #1f77b4"/>
     <use xlink:href="#mf2fd711f4e" x="304.337455" y="195.850047" style="fill: #1f77b4; stroke: #1f77b4"/>
     <use xlink:href="#mf2fd711f4e" x="307.584" y="176.306881" style="fill: #1f77b4; stroke: #1f77b4"/>
     <use xlink:href="#mf2fd711f4e" x="310.830545" y="168.960668" style="fill: #1f77b4; stroke: #1f77b4"/>
     <use xlink:href="#mf2fd711f4e" x="314.077091" y="150.678886" style="fill: #1f77b4; stroke: #1f77b4"/>
     <use xlink:href="#mf2fd711f4e" x="317.323636" y="159.031656" style="fill: #1f77b4; stroke: #1f77b4"/>
     <use xlink:href="#mf2fd711f4e" x="320.570182" y="166.568407" style="fill: #1f77b4; stroke: #1f77b4"/>
     <use xlink:href="#mf2fd711f4e" x="323.816727" y="198.866978" style="fill: #1f77b4; stroke: #1f77b4"/>
     <use xlink:href="#mf2fd711f4e" x="327.063273" y="216.139836" style="fill: #1f77b4; stroke: #1f77b4"/>
     <use xlink:href="#mf2fd711f4e" x="330.309818" y="249.13559" style="fill: #1f77b4; stroke: #1f77b4"/>
     <use xlink:href="#mf2fd711f4e" x="333.556364" y="266.022458" style="fill: #1f77b4; stroke: #1f77b4"/>
     <use xlink:href="#mf2fd711f4e" x="336.802909" y="278.211598" style="fill: #1f77b4; stroke: #1f77b4"/>
     <use xlink:href="#mf2fd711f4e" x="340.049455" y="278.345003" style="fill: #1f77b4; stroke: #1f77b4"/>
     <use xlink:href="#mf2fd711f4e" x="343.296" y="264.286162" style="fill: #1f77b4; stroke: #1f77b4"/>
     <use xlink:href="#mf2fd711f4e" x="346.542545" y="235.499032" style="fill: #1f77b4; stroke: #1f77b4"/>
     <use xlink:href="#mf2fd711f4e" x="349.789091" y="207.223209" style="fill: #1f77b4; stroke: #1f77b4"/>
     <use xlink:href="#mf2fd711f4e" x="353.035636" y="174.390132" style="fill: #1f77b4; stroke: #1f77b4"/>
     <use xlink:href="#mf2fd711f4e" x="356.282182" y="156.002292" style="fill: #1f77b4; stroke: #1f77b4"/>
     <use xlink:href="#mf2fd711f4e" x="359.528727" y="140.54619" style="fill: #1f77b4; stroke: #1f77b4"/>
     <use xlink:href="#mf2fd711f4e" x="362.775273" y="146.156299" style="fill: #1f77b4; stroke: #1f77b4"/>
     <use xlink:href="#mf2fd711f4e" x="366.021818" y="156.263145" style="fill: #1f77b4; stroke: #1f77b4"/>
     <use xlink:href="#mf2fd711f4e" x="369.268364" y="190.049823" style="fill: #1f77b4; stroke: #1f77b4"/>
     <use xlink:href="#mf2fd711f4e" x="372.514909" y="214.974625" style="fill: #1f77b4; stroke: #1f77b4"/>
     <use xlink:href="#mf2fd711f4e" x="375.761455" y="233.610586" style="fill: #1f77b4; stroke: #1f77b4"/>
     <use xlink:href="#mf2fd711f4e" x="379.008" y="247.660982" style="fill: #1f77b4; stroke: #1f77b4"/>
     <use xlink:href="#mf2fd711f4e" x="382.254545" y="249.346087" style="fill: #1f77b4; stroke: #1f77b4"/>
     <use xlink:href="#mf2fd711f4e" x="385.501091" y="243.688384" style="fill: #1f77b4; stroke: #1f77b4"/>
     <use xlink:href="#mf2fd711f4e" x="388.747636" y="226.233986" style="fill: #1f77b4; stroke: #1f77b4"/>
     <use xlink:href="#mf2fd711f4e" x="391.994182" y="211.140891" style="fill: #1f77b4; stroke: #1f77b4"/>
     <use xlink:href="#mf2fd711f4e" x="395.240727" y="183.425439" style="fill: #1f77b4; stroke: #1f77b4"/>
    </g>
   </g>
   <g id="matplotlib.axis_1">
    <g id="xtick_1">
     <g id="line2d_1">
      <defs>
       <path id="m72f6ae57f7" d="M 0 0 
L 0 3.5 
" style="stroke: #000000; stroke-width: 0.8"/>
      </defs>
      <g>
       <use xlink:href="#m72f6ae57f7" x="73.832727" y="307.584" style="stroke: #000000; stroke-width: 0.8"/>
      </g>
     </g>
     <g id="text_1">
      <!-- 0 -->
      <g transform="translate(70.651477 322.182437) scale(0.1 -0.1)">
       <defs>
        <path id="DejaVuSans-30" d="M 2034 4250 
Q 1547 4250 1301 3770 
Q 1056 3291 1056 2328 
Q 1056 1369 1301 889 
Q 1547 409 2034 409 
Q 2525 409 2770 889 
Q 3016 1369 3016 2328 
Q 3016 3291 2770 3770 
Q 2525 4250 2034 4250 
z
M 2034 4750 
Q 2819 4750 3233 4129 
Q 3647 3509 3647 2328 
Q 3647 1150 3233 529 
Q 2819 -91 2034 -91 
Q 1250 -91 836 529 
Q 422 1150 422 2328 
Q 422 3509 836 4129 
Q 1250 4750 2034 4750 
z
" transform="scale(0.015625)"/>
       </defs>
       <use xlink:href="#DejaVuSans-30"/>
      </g>
     </g>
    </g>
    <g id="xtick_2">
     <g id="line2d_2">
      <g>
       <use xlink:href="#m72f6ae57f7" x="138.763636" y="307.584" style="stroke: #000000; stroke-width: 0.8"/>
      </g>
     </g>
     <g id="text_2">
      <!-- 2 -->
      <g transform="translate(135.582386 322.182437) scale(0.1 -0.1)">
       <defs>
        <path id="DejaVuSans-32" d="M 1228 531 
L 3431 531 
L 3431 0 
L 469 0 
L 469 531 
Q 828 903 1448 1529 
Q 2069 2156 2228 2338 
Q 2531 2678 2651 2914 
Q 2772 3150 2772 3378 
Q 2772 3750 2511 3984 
Q 2250 4219 1831 4219 
Q 1534 4219 1204 4116 
Q 875 4013 500 3803 
L 500 4441 
Q 881 4594 1212 4672 
Q 1544 4750 1819 4750 
Q 2544 4750 2975 4387 
Q 3406 4025 3406 3419 
Q 3406 3131 3298 2873 
Q 3191 2616 2906 2266 
Q 2828 2175 2409 1742 
Q 1991 1309 1228 531 
z
" transform="scale(0.015625)"/>
       </defs>
       <use xlink:href="#DejaVuSans-32"/>
      </g>
     </g>
    </g>
    <g id="xtick_3">
     <g id="line2d_3">
      <g>
       <use xlink:href="#m72f6ae57f7" x="203.694545" y="307.584" style="stroke: #000000; stroke-width: 0.8"/>
      </g>
     </g>
     <g id="text_3">
      <!-- 4 -->
      <g transform="translate(200.513295 322.182437) scale(0.1 -0.1)">
       <defs>
        <path id="DejaVuSans-34" d="M 2419 4116 
L 825 1625 
L 2419 1625 
L 2419 4116 
z
M 2253 4666 
L 3047 4666 
L 3047 1625 
L 3713 1625 
L 3713 1100 
L 3047 1100 
L 3047 0 
L 2419 0 
L 2419 1100 
L 313 1100 
L 313 1709 
L 2253 4666 
z
" transform="scale(0.015625)"/>
       </defs>
       <use xlink:href="#DejaVuSans-34"/>
      </g>
     </g>
    </g>
    <g id="xtick_4">
     <g id="line2d_4">
      <g>
       <use xlink:href="#m72f6ae57f7" x="268.625455" y="307.584" style="stroke: #000000; stroke-width: 0.8"/>
      </g>
     </g>
     <g id="text_4">
      <!-- 6 -->
      <g transform="translate(265.444205 322.182437) scale(0.1 -0.1)">
       <defs>
        <path id="DejaVuSans-36" d="M 2113 2584 
Q 1688 2584 1439 2293 
Q 1191 2003 1191 1497 
Q 1191 994 1439 701 
Q 1688 409 2113 409 
Q 2538 409 2786 701 
Q 3034 994 3034 1497 
Q 3034 2003 2786 2293 
Q 2538 2584 2113 2584 
z
M 3366 4563 
L 3366 3988 
Q 3128 4100 2886 4159 
Q 2644 4219 2406 4219 
Q 1781 4219 1451 3797 
Q 1122 3375 1075 2522 
Q 1259 2794 1537 2939 
Q 1816 3084 2150 3084 
Q 2853 3084 3261 2657 
Q 3669 2231 3669 1497 
Q 3669 778 3244 343 
Q 2819 -91 2113 -91 
Q 1303 -91 875 529 
Q 447 1150 447 2328 
Q 447 3434 972 4092 
Q 1497 4750 2381 4750 
Q 2619 4750 2861 4703 
Q 3103 4656 3366 4563 
z
" transform="scale(0.015625)"/>
       </defs>
       <use xlink:href="#DejaVuSans-36"/>
      </g>
     </g>
    </g>
    <g id="xtick_5">
     <g id="line2d_5">
      <g>
       <use xlink:href="#m72f6ae57f7" x="333.556364" y="307.584" style="stroke: #000000; stroke-width: 0.8"/>
      </g>
     </g>
     <g id="text_5">
      <!-- 8 -->
      <g transform="translate(330.375114 322.182437) scale(0.1 -0.1)">
       <defs>
        <path id="DejaVuSans-38" d="M 2034 2216 
Q 1584 2216 1326 1975 
Q 1069 1734 1069 1313 
Q 1069 891 1326 650 
Q 1584 409 2034 409 
Q 2484 409 2743 651 
Q 3003 894 3003 1313 
Q 3003 1734 2745 1975 
Q 2488 2216 2034 2216 
z
M 1403 2484 
Q 997 2584 770 2862 
Q 544 3141 544 3541 
Q 544 4100 942 4425 
Q 1341 4750 2034 4750 
Q 2731 4750 3128 4425 
Q 3525 4100 3525 3541 
Q 3525 3141 3298 2862 
Q 3072 2584 2669 2484 
Q 3125 2378 3379 2068 
Q 3634 1759 3634 1313 
Q 3634 634 3220 271 
Q 2806 -91 2034 -91 
Q 1263 -91 848 271 
Q 434 634 434 1313 
Q 434 1759 690 2068 
Q 947 2378 1403 2484 
z
M 1172 3481 
Q 1172 3119 1398 2916 
Q 1625 2713 2034 2713 
Q 2441 2713 2670 2916 
Q 2900 3119 2900 3481 
Q 2900 3844 2670 4047 
Q 2441 4250 2034 4250 
Q 1625 4250 1398 4047 
Q 1172 3844 1172 3481 
z
" transform="scale(0.015625)"/>
       </defs>
       <use xlink:href="#DejaVuSans-38"/>
      </g>
     </g>
    </g>
    <g id="xtick_6">
     <g id="line2d_6">
      <g>
       <use xlink:href="#m72f6ae57f7" x="398.487273" y="307.584" style="stroke: #000000; stroke-width: 0.8"/>
      </g>
     </g>
     <g id="text_6">
      <!-- 10 -->
      <g transform="translate(392.124773 322.182437) scale(0.1 -0.1)">
       <defs>
        <path id="DejaVuSans-31" d="M 794 531 
L 1825 531 
L 1825 4091 
L 703 3866 
L 703 4441 
L 1819 4666 
L 2450 4666 
L 2450 531 
L 3481 531 
L 3481 0 
L 794 0 
L 794 531 
z
" transform="scale(0.015625)"/>
       </defs>
       <use xlink:href="#DejaVuSans-31"/>
       <use xlink:href="#DejaVuSans-30" x="63.623047"/>
      </g>
     </g>
    </g>
    <g id="text_7">
     <!-- x -->
     <g transform="translate(233.200625 335.860562) scale(0.1 -0.1)">
      <defs>
       <path id="DejaVuSans-78" d="M 3513 3500 
L 2247 1797 
L 3578 0 
L 2900 0 
L 1881 1375 
L 863 0 
L 184 0 
L 1544 1831 
L 300 3500 
L 978 3500 
L 1906 2253 
L 2834 3500 
L 3513 3500 
z
" transform="scale(0.015625)"/>
      </defs>
      <use xlink:href="#DejaVuSans-78"/>
     </g>
    </g>
   </g>
   <g id="matplotlib.axis_2">
    <g id="ytick_1">
     <g id="line2d_7">
      <defs>
       <path id="m321b74945d" d="M 0 0 
L -3.5 0 
" style="stroke: #000000; stroke-width: 0.8"/>
      </defs>
      <g>
       <use xlink:href="#m321b74945d" x="57.6" y="258.213629" style="stroke: #000000; stroke-width: 0.8"/>
      </g>
     </g>
     <g id="text_8">
      <!-- −2 -->
      <g transform="translate(35.857813 262.012847) scale(0.1 -0.1)">
       <defs>
        <path id="DejaVuSans-2212" d="M 678 2272 
L 4684 2272 
L 4684 1741 
L 678 1741 
L 678 2272 
z
" transform="scale(0.015625)"/>
       </defs>
       <use xlink:href="#DejaVuSans-2212"/>
       <use xlink:href="#DejaVuSans-32" x="83.789062"/>
      </g>
     </g>
    </g>
    <g id="ytick_2">
     <g id="line2d_8">
      <g>
       <use xlink:href="#m321b74945d" x="57.6" y="201.713318" style="stroke: #000000; stroke-width: 0.8"/>
      </g>
     </g>
     <g id="text_9">
      <!-- 0 -->
      <g transform="translate(44.2375 205.512537) scale(0.1 -0.1)">
       <use xlink:href="#DejaVuSans-30"/>
      </g>
     </g>
    </g>
    <g id="ytick_3">
     <g id="line2d_9">
      <g>
       <use xlink:href="#m321b74945d" x="57.6" y="145.213007" style="stroke: #000000; stroke-width: 0.8"/>
      </g>
     </g>
     <g id="text_10">
      <!-- 2 -->
      <g transform="translate(44.2375 149.012226) scale(0.1 -0.1)">
       <use xlink:href="#DejaVuSans-32"/>
      </g>
     </g>
    </g>
    <g id="ytick_4">
     <g id="line2d_10">
      <g>
       <use xlink:href="#m321b74945d" x="57.6" y="88.712696" style="stroke: #000000; stroke-width: 0.8"/>
      </g>
     </g>
     <g id="text_11">
      <!-- 4 -->
      <g transform="translate(44.2375 92.511915) scale(0.1 -0.1)">
       <use xlink:href="#DejaVuSans-34"/>
      </g>
     </g>
    </g>
    <g id="text_12">
     <!-- y -->
     <g transform="translate(29.778125 177.487375) rotate(-90) scale(0.1 -0.1)">
      <defs>
       <path id="DejaVuSans-79" d="M 2059 -325 
Q 1816 -950 1584 -1140 
Q 1353 -1331 966 -1331 
L 506 -1331 
L 506 -850 
L 844 -850 
Q 1081 -850 1212 -737 
Q 1344 -625 1503 -206 
L 1606 56 
L 191 3500 
L 800 3500 
L 1894 763 
L 2988 3500 
L 3597 3500 
L 2059 -325 
z
" transform="scale(0.015625)"/>
      </defs>
      <use xlink:href="#DejaVuSans-79"/>
     </g>
    </g>
   </g>
   <g id="line2d_11">
    <path d="M 73.832727 57.544143 
L 77.079273 59.865585 
L 80.325818 72.565366 
L 83.572364 92.639824 
L 86.818909 115.37653 
L 90.065455 135.646258 
L 93.312 149.262255 
L 96.558545 154.067653 
L 99.805091 150.481709 
L 103.051636 141.371629 
L 106.298182 131.285296 
L 109.544727 125.239871 
L 112.791273 127.372432 
L 116.037818 139.794294 
L 119.284364 161.941455 
L 122.530909 190.591801 
L 125.777455 220.555146 
L 129.024 245.875238 
L 132.270545 261.254673 
L 135.517091 263.355832 
L 138.763636 251.657939 
L 142.010182 228.655827 
L 145.256727 199.34449 
L 148.503273 170.106328 
L 151.749818 147.263135 
L 154.996364 135.636779 
L 158.242909 137.461223 
L 161.489455 151.9042 
L 164.736 175.310025 
L 167.982545 202.10136 
L 171.229091 226.119581 
L 174.475636 242.079047 
L 177.722182 246.785414 
L 180.968727 239.828027 
L 184.215273 223.586486 
L 187.461818 202.559796 
L 190.708364 182.191818 
L 193.954909 167.488598 
L 197.201455 161.771851 
L 200.448 165.876787 
L 203.694545 177.990539 
L 206.941091 194.16751 
L 210.187636 209.389355 
L 213.434182 218.901671 
L 216.680727 219.490138 
L 219.927273 210.373052 
L 223.173818 193.481393 
L 226.420364 173.048848 
L 229.666909 154.605264 
L 232.913455 143.61586 
L 236.16 144.098509 
L 239.406545 157.560109 
L 242.653091 182.518159 
L 245.899636 214.733101 
L 249.146182 248.105065 
L 252.392727 276.027088 
L 255.639273 292.875334 
L 258.885818 295.282391 
L 262.132364 282.891021 
L 265.378909 258.410308 
L 268.625455 226.963708 
L 271.872 194.888368 
L 275.118545 168.275863 
L 278.365091 151.604598 
L 281.611636 146.789005 
L 284.858182 152.866795 
L 288.104727 166.388427 
L 291.351273 182.401195 
L 294.597818 195.775993 
L 297.844364 202.543014 
L 301.090909 200.903374 
L 304.337455 191.66632 
L 307.584 178.005941 
L 310.830545 164.601312 
L 314.077091 156.378069 
L 317.323636 157.169334 
L 320.570182 168.635206 
L 323.816727 189.71724 
L 327.063273 216.772836 
L 330.309818 244.366556 
L 333.556364 266.532179 
L 336.802909 278.201176 
L 340.049455 276.449214 
L 343.296 261.253509 
L 346.542545 235.570512 
L 349.789091 204.707187 
L 353.035636 175.130269 
L 356.282182 152.994484 
L 359.528727 142.739574 
L 362.775273 146.09005 
L 366.021818 161.694867 
L 369.268364 185.490039 
L 372.514909 211.693193 
L 375.761455 234.187492 
L 379.008 247.960043 
L 382.254545 250.249211 
L 385.501091 241.128506 
L 388.747636 223.393843 
L 391.994182 201.791758 
L 395.240727 181.786802 
L 398.487273 168.177573 
" clip-path="url(#pcce513d6cf)" style="fill: none; stroke: #ff0000; stroke-width: 1.5; stroke-linecap: square"/>
   </g>
   <g id="patch_3">
    <path d="M 57.6 307.584 
L 57.6 41.472 
" style="fill: none; stroke: #000000; stroke-width: 0.8; stroke-linejoin: miter; stroke-linecap: square"/>
   </g>
   <g id="patch_4">
    <path d="M 414.72 307.584 
L 414.72 41.472 
" style="fill: none; stroke: #000000; stroke-width: 0.8; stroke-linejoin: miter; stroke-linecap: square"/>
   </g>
   <g id="patch_5">
    <path d="M 57.6 307.584 
L 414.72 307.584 
" style="fill: none; stroke: #000000; stroke-width: 0.8; stroke-linejoin: miter; stroke-linecap: square"/>
   </g>
   <g id="patch_6">
    <path d="M 57.6 41.472 
L 414.72 41.472 
" style="fill: none; stroke: #000000; stroke-width: 0.8; stroke-linejoin: miter; stroke-linecap: square"/>
   </g>
   <g id="text_13">
    <!-- Aproksymacja -->
    <g transform="translate(193.928438 35.472) scale(0.12 -0.12)">
     <defs>
      <path id="DejaVuSans-41" d="M 2188 4044 
L 1331 1722 
L 3047 1722 
L 2188 4044 
z
M 1831 4666 
L 2547 4666 
L 4325 0 
L 3669 0 
L 3244 1197 
L 1141 1197 
L 716 0 
L 50 0 
L 1831 4666 
z
" transform="scale(0.015625)"/>
      <path id="DejaVuSans-70" d="M 1159 525 
L 1159 -1331 
L 581 -1331 
L 581 3500 
L 1159 3500 
L 1159 2969 
Q 1341 3281 1617 3432 
Q 1894 3584 2278 3584 
Q 2916 3584 3314 3078 
Q 3713 2572 3713 1747 
Q 3713 922 3314 415 
Q 2916 -91 2278 -91 
Q 1894 -91 1617 61 
Q 1341 213 1159 525 
z
M 3116 1747 
Q 3116 2381 2855 2742 
Q 2594 3103 2138 3103 
Q 1681 3103 1420 2742 
Q 1159 2381 1159 1747 
Q 1159 1113 1420 752 
Q 1681 391 2138 391 
Q 2594 391 2855 752 
Q 3116 1113 3116 1747 
z
" transform="scale(0.015625)"/>
      <path id="DejaVuSans-72" d="M 2631 2963 
Q 2534 3019 2420 3045 
Q 2306 3072 2169 3072 
Q 1681 3072 1420 2755 
Q 1159 2438 1159 1844 
L 1159 0 
L 581 0 
L 581 3500 
L 1159 3500 
L 1159 2956 
Q 1341 3275 1631 3429 
Q 1922 3584 2338 3584 
Q 2397 3584 2469 3576 
Q 2541 3569 2628 3553 
L 2631 2963 
z
" transform="scale(0.015625)"/>
      <path id="DejaVuSans-6f" d="M 1959 3097 
Q 1497 3097 1228 2736 
Q 959 2375 959 1747 
Q 959 1119 1226 758 
Q 1494 397 1959 397 
Q 2419 397 2687 759 
Q 2956 1122 2956 1747 
Q 2956 2369 2687 2733 
Q 2419 3097 1959 3097 
z
M 1959 3584 
Q 2709 3584 3137 3096 
Q 3566 2609 3566 1747 
Q 3566 888 3137 398 
Q 2709 -91 1959 -91 
Q 1206 -91 779 398 
Q 353 888 353 1747 
Q 353 2609 779 3096 
Q 1206 3584 1959 3584 
z
" transform="scale(0.015625)"/>
      <path id="DejaVuSans-6b" d="M 581 4863 
L 1159 4863 
L 1159 1991 
L 2875 3500 
L 3609 3500 
L 1753 1863 
L 3688 0 
L 2938 0 
L 1159 1709 
L 1159 0 
L 581 0 
L 581 4863 
z
" transform="scale(0.015625)"/>
      <path id="DejaVuSans-73" d="M 2834 3397 
L 2834 2853 
Q 2591 2978 2328 3040 
Q 2066 3103 1784 3103 
Q 1356 3103 1142 2972 
Q 928 2841 928 2578 
Q 928 2378 1081 2264 
Q 1234 2150 1697 2047 
L 1894 2003 
Q 2506 1872 2764 1633 
Q 3022 1394 3022 966 
Q 3022 478 2636 193 
Q 2250 -91 1575 -91 
Q 1294 -91 989 -36 
Q 684 19 347 128 
L 347 722 
Q 666 556 975 473 
Q 1284 391 1588 391 
Q 1994 391 2212 530 
Q 2431 669 2431 922 
Q 2431 1156 2273 1281 
Q 2116 1406 1581 1522 
L 1381 1569 
Q 847 1681 609 1914 
Q 372 2147 372 2553 
Q 372 3047 722 3315 
Q 1072 3584 1716 3584 
Q 2034 3584 2315 3537 
Q 2597 3491 2834 3397 
z
" transform="scale(0.015625)"/>
      <path id="DejaVuSans-6d" d="M 3328 2828 
Q 3544 3216 3844 3400 
Q 4144 3584 4550 3584 
Q 5097 3584 5394 3201 
Q 5691 2819 5691 2113 
L 5691 0 
L 5113 0 
L 5113 2094 
Q 5113 2597 4934 2840 
Q 4756 3084 4391 3084 
Q 3944 3084 3684 2787 
Q 3425 2491 3425 1978 
L 3425 0 
L 2847 0 
L 2847 2094 
Q 2847 2600 2669 2842 
Q 2491 3084 2119 3084 
Q 1678 3084 1418 2786 
Q 1159 2488 1159 1978 
L 1159 0 
L 581 0 
L 581 3500 
L 1159 3500 
L 1159 2956 
Q 1356 3278 1631 3431 
Q 1906 3584 2284 3584 
Q 2666 3584 2933 3390 
Q 3200 3197 3328 2828 
z
" transform="scale(0.015625)"/>
      <path id="DejaVuSans-61" d="M 2194 1759 
Q 1497 1759 1228 1600 
Q 959 1441 959 1056 
Q 959 750 1161 570 
Q 1363 391 1709 391 
Q 2188 391 2477 730 
Q 2766 1069 2766 1631 
L 2766 1759 
L 2194 1759 
z
M 3341 1997 
L 3341 0 
L 2766 0 
L 2766 531 
Q 2569 213 2275 61 
Q 1981 -91 1556 -91 
Q 1019 -91 701 211 
Q 384 513 384 1019 
Q 384 1609 779 1909 
Q 1175 2209 1959 2209 
L 2766 2209 
L 2766 2266 
Q 2766 2663 2505 2880 
Q 2244 3097 1772 3097 
Q 1472 3097 1187 3025 
Q 903 2953 641 2809 
L 641 3341 
Q 956 3463 1253 3523 
Q 1550 3584 1831 3584 
Q 2591 3584 2966 3190 
Q 3341 2797 3341 1997 
z
" transform="scale(0.015625)"/>
      <path id="DejaVuSans-63" d="M 3122 3366 
L 3122 2828 
Q 2878 2963 2633 3030 
Q 2388 3097 2138 3097 
Q 1578 3097 1268 2742 
Q 959 2388 959 1747 
Q 959 1106 1268 751 
Q 1578 397 2138 397 
Q 2388 397 2633 464 
Q 2878 531 3122 666 
L 3122 134 
Q 2881 22 2623 -34 
Q 2366 -91 2075 -91 
Q 1284 -91 818 406 
Q 353 903 353 1747 
Q 353 2603 823 3093 
Q 1294 3584 2113 3584 
Q 2378 3584 2631 3529 
Q 2884 3475 3122 3366 
z
" transform="scale(0.015625)"/>
      <path id="DejaVuSans-6a" d="M 603 3500 
L 1178 3500 
L 1178 -63 
Q 1178 -731 923 -1031 
Q 669 -1331 103 -1331 
L -116 -1331 
L -116 -844 
L 38 -844 
Q 366 -844 484 -692 
Q 603 -541 603 -63 
L 603 3500 
z
M 603 4863 
L 1178 4863 
L 1178 4134 
L 603 4134 
L 603 4863 
z
" transform="scale(0.015625)"/>
     </defs>
     <use xlink:href="#DejaVuSans-41"/>
     <use xlink:href="#DejaVuSans-70" x="68.408203"/>
     <use xlink:href="#DejaVuSans-72" x="131.884766"/>
     <use xlink:href="#DejaVuSans-6f" x="170.748047"/>
     <use xlink:href="#DejaVuSans-6b" x="231.929688"/>
     <use xlink:href="#DejaVuSans-73" x="289.839844"/>
     <use xlink:href="#DejaVuSans-79" x="341.939453"/>
     <use xlink:href="#DejaVuSans-6d" x="401.119141"/>
     <use xlink:href="#DejaVuSans-61" x="498.53125"/>
     <use xlink:href="#DejaVuSans-63" x="559.810547"/>
     <use xlink:href="#DejaVuSans-6a" x="614.791016"/>
     <use xlink:href="#DejaVuSans-61" x="642.574219"/>
    </g>
   </g>
   <g id="legend_1">
    <g id="patch_7">
     <path d="M 281.293438 78.82825 
L 407.72 78.82825 
Q 409.72 78.82825 409.72 76.82825 
L 409.72 48.472 
Q 409.72 46.472 407.72 46.472 
L 281.293438 46.472 
Q 279.293438 46.472 279.293438 48.472 
L 279.293438 76.82825 
Q 279.293438 78.82825 281.293438 78.82825 
z
" style="fill: #ffffff; opacity: 0.8; stroke: #cccccc; stroke-linejoin: miter"/>
    </g>
    <g id="PathCollection_2">
     <g>
      <use xlink:href="#mf2fd711f4e" x="293.293438" y="55.445437" style="fill: #1f77b4; stroke: #1f77b4"/>
     </g>
    </g>
    <g id="text_14">
     <!-- Dane -->
     <g transform="translate(311.293438 58.070437) scale(0.1 -0.1)">
      <defs>
       <path id="DejaVuSans-44" d="M 1259 4147 
L 1259 519 
L 2022 519 
Q 2988 519 3436 956 
Q 3884 1394 3884 2338 
Q 3884 3275 3436 3711 
Q 2988 4147 2022 4147 
L 1259 4147 
z
M 628 4666 
L 1925 4666 
Q 3281 4666 3915 4102 
Q 4550 3538 4550 2338 
Q 4550 1131 3912 565 
Q 3275 0 1925 0 
L 628 0 
L 628 4666 
z
" transform="scale(0.015625)"/>
       <path id="DejaVuSans-6e" d="M 3513 2113 
L 3513 0 
L 2938 0 
L 2938 2094 
Q 2938 2591 2744 2837 
Q 2550 3084 2163 3084 
Q 1697 3084 1428 2787 
Q 1159 2491 1159 1978 
L 1159 0 
L 581 0 
L 581 3500 
L 1159 3500 
L 1159 2956 
Q 1366 3272 1645 3428 
Q 1925 3584 2291 3584 
Q 2894 3584 3203 3211 
Q 3513 2838 3513 2113 
z
" transform="scale(0.015625)"/>
       <path id="DejaVuSans-65" d="M 3597 1894 
L 3597 1613 
L 953 1613 
Q 991 1019 1311 708 
Q 1631 397 2203 397 
Q 2534 397 2845 478 
Q 3156 559 3463 722 
L 3463 178 
Q 3153 47 2828 -22 
Q 2503 -91 2169 -91 
Q 1331 -91 842 396 
Q 353 884 353 1716 
Q 353 2575 817 3079 
Q 1281 3584 2069 3584 
Q 2775 3584 3186 3129 
Q 3597 2675 3597 1894 
z
M 3022 2063 
Q 3016 2534 2758 2815 
Q 2500 3097 2075 3097 
Q 1594 3097 1305 2825 
Q 1016 2553 972 2059 
L 3022 2063 
z
" transform="scale(0.015625)"/>
      </defs>
      <use xlink:href="#DejaVuSans-44"/>
      <use xlink:href="#DejaVuSans-61" x="77.001953"/>
      <use xlink:href="#DejaVuSans-6e" x="138.28125"/>
      <use xlink:href="#DejaVuSans-65" x="201.660156"/>
     </g>
    </g>
    <g id="line2d_12">
     <path d="M 283.293438 69.248562 
L 293.293438 69.248562 
L 303.293438 69.248562 
" style="fill: none; stroke: #ff0000; stroke-width: 1.5; stroke-linecap: square"/>
    </g>
    <g id="text_15">
     <!-- Znaleziona funkcja -->
     <g transform="translate(311.293438 72.748562) scale(0.1 -0.1)">
      <defs>
       <path id="DejaVuSans-5a" d="M 359 4666 
L 4025 4666 
L 4025 4184 
L 1075 531 
L 4097 531 
L 4097 0 
L 288 0 
L 288 481 
L 3238 4134 
L 359 4134 
L 359 4666 
z
" transform="scale(0.015625)"/>
       <path id="DejaVuSans-6c" d="M 603 4863 
L 1178 4863 
L 1178 0 
L 603 0 
L 603 4863 
z
" transform="scale(0.015625)"/>
       <path id="DejaVuSans-7a" d="M 353 3500 
L 3084 3500 
L 3084 2975 
L 922 459 
L 3084 459 
L 3084 0 
L 275 0 
L 275 525 
L 2438 3041 
L 353 3041 
L 353 3500 
z
" transform="scale(0.015625)"/>
       <path id="DejaVuSans-69" d="M 603 3500 
L 1178 3500 
L 1178 0 
L 603 0 
L 603 3500 
z
M 603 4863 
L 1178 4863 
L 1178 4134 
L 603 4134 
L 603 4863 
z
" transform="scale(0.015625)"/>
       <path id="DejaVuSans-20" transform="scale(0.015625)"/>
       <path id="DejaVuSans-66" d="M 2375 4863 
L 2375 4384 
L 1825 4384 
Q 1516 4384 1395 4259 
Q 1275 4134 1275 3809 
L 1275 3500 
L 2222 3500 
L 2222 3053 
L 1275 3053 
L 1275 0 
L 697 0 
L 697 3053 
L 147 3053 
L 147 3500 
L 697 3500 
L 697 3744 
Q 697 4328 969 4595 
Q 1241 4863 1831 4863 
L 2375 4863 
z
" transform="scale(0.015625)"/>
       <path id="DejaVuSans-75" d="M 544 1381 
L 544 3500 
L 1119 3500 
L 1119 1403 
Q 1119 906 1312 657 
Q 1506 409 1894 409 
Q 2359 409 2629 706 
Q 2900 1003 2900 1516 
L 2900 3500 
L 3475 3500 
L 3475 0 
L 2900 0 
L 2900 538 
Q 2691 219 2414 64 
Q 2138 -91 1772 -91 
Q 1169 -91 856 284 
Q 544 659 544 1381 
z
M 1991 3584 
L 1991 3584 
z
" transform="scale(0.015625)"/>
      </defs>
      <use xlink:href="#DejaVuSans-5a"/>
      <use xlink:href="#DejaVuSans-6e" x="68.505859"/>
      <use xlink:href="#DejaVuSans-61" x="131.884766"/>
      <use xlink:href="#DejaVuSans-6c" x="193.164062"/>
      <use xlink:href="#DejaVuSans-65" x="220.947266"/>
      <use xlink:href="#DejaVuSans-7a" x="282.470703"/>
      <use xlink:href="#DejaVuSans-69" x="334.960938"/>
      <use xlink:href="#DejaVuSans-6f" x="362.744141"/>
      <use xlink:href="#DejaVuSans-6e" x="423.925781"/>
      <use xlink:href="#DejaVuSans-61" x="487.304688"/>
      <use xlink:href="#DejaVuSans-20" x="548.583984"/>
      <use xlink:href="#DejaVuSans-66" x="580.371094"/>
      <use xlink:href="#DejaVuSans-75" x="615.576172"/>
      <use xlink:href="#DejaVuSans-6e" x="678.955078"/>
      <use xlink:href="#DejaVuSans-6b" x="742.333984"/>
      <use xlink:href="#DejaVuSans-63" x="800.244141"/>
      <use xlink:href="#DejaVuSans-6a" x="855.224609"/>
      <use xlink:href="#DejaVuSans-61" x="883.007812"/>
     </g>
    </g>
   </g>
  </g>
 </g>
 <defs>
  <clipPath id="pcce513d6cf">
   <rect x="57.6" y="41.472" width="357.12" height="266.112"/>
  </clipPath>
 </defs>
</svg>
