<?xml version="1.0" encoding="utf-8" standalone="no"?>
<!DOCTYPE svg PUBLIC "-//W3C//DTD SVG 1.1//EN"
  "http://www.w3.org/Graphics/SVG/1.1/DTD/svg11.dtd">
<svg xmlns:xlink="http://www.w3.org/1999/xlink" width="460.8pt" height="345.6pt" viewBox="0 0 460.8 345.6" xmlns="http://www.w3.org/2000/svg" version="1.1">
 <metadata>
  <rdf:RDF xmlns:dc="http://purl.org/dc/elements/1.1/" xmlns:cc="http://creativecommons.org/ns#" xmlns:rdf="http://www.w3.org/1999/02/22-rdf-syntax-ns#">
   <cc:Work>
    <dc:type rdf:resource="http://purl.org/dc/dcmitype/StillImage"/>
    <dc:date>2022-12-29T12:47:25.981145</dc:date>
    <dc:format>image/svg+xml</dc:format>
    <dc:creator>
     <cc:Agent>
      <dc:title>Matplotlib v3.6.2, https://matplotlib.org/</dc:title>
     </cc:Agent>
    </dc:creator>
   </cc:Work>
  </rdf:RDF>
 </metadata>
 <defs>
  <style type="text/css">*{stroke-linejoin: round; stroke-linecap: butt}</style>
 </defs>
 <g id="figure_1">
  <g id="patch_1">
   <path d="M 0 345.6 
L 460.8 345.6 
L 460.8 0 
L 0 0 
z
" style="fill: #ffffff"/>
  </g>
  <g id="axes_1">
   <g id="patch_2">
    <path d="M 57.6 307.584 
L 414.72 307.584 
L 414.72 41.472 
L 57.6 41.472 
z
" style="fill: #ffffff"/>
   </g>
   <g id="PathCollection_1">
    <defs>
     <path id="mede07de4e6" d="M 0 3 
C 0.795609 3 1.55874 2.683901 2.12132 2.12132 
C 2.683901 1.55874 3 0.795609 3 0 
C 3 -0.795609 2.683901 -1.55874 2.12132 -2.12132 
C 1.55874 -2.683901 0.795609 -3 0 -3 
C -0.795609 -3 -1.55874 -2.683901 -2.12132 -2.12132 
C -2.683901 -1.55874 -3 -0.795609 -3 0 
C -3 0.795609 -2.683901 1.55874 -2.12132 2.12132 
C -1.55874 2.683901 -0.795609 3 0 3 
z
" style="stroke: #0000ff"/>
    </defs>
    <g clip-path="url(#p83a5849612)">
     <use xlink:href="#mede07de4e6" x="73.832727" y="126.633747" style="fill: #0000ff; stroke: #0000ff"/>
     <use xlink:href="#mede07de4e6" x="84.654545" y="109.131299" style="fill: #0000ff; stroke: #0000ff"/>
     <use xlink:href="#mede07de4e6" x="95.476364" y="95.223957" style="fill: #0000ff; stroke: #0000ff"/>
     <use xlink:href="#mede07de4e6" x="106.298182" y="94.802136" style="fill: #0000ff; stroke: #0000ff"/>
     <use xlink:href="#mede07de4e6" x="117.12" y="104.388162" style="fill: #0000ff; stroke: #0000ff"/>
     <use xlink:href="#mede07de4e6" x="127.941818" y="111.373479" style="fill: #0000ff; stroke: #0000ff"/>
     <use xlink:href="#mede07de4e6" x="138.763636" y="106.64941" style="fill: #0000ff; stroke: #0000ff"/>
     <use xlink:href="#mede07de4e6" x="149.585455" y="93.904186" style="fill: #0000ff; stroke: #0000ff"/>
     <use xlink:href="#mede07de4e6" x="160.407273" y="86.936769" style="fill: #0000ff; stroke: #0000ff"/>
     <use xlink:href="#mede07de4e6" x="171.229091" y="97.379294" style="fill: #0000ff; stroke: #0000ff"/>
     <use xlink:href="#mede07de4e6" x="182.050909" y="124.070785" style="fill: #0000ff; stroke: #0000ff"/>
     <use xlink:href="#mede07de4e6" x="192.872727" y="153.844186" style="fill: #0000ff; stroke: #0000ff"/>
     <use xlink:href="#mede07de4e6" x="203.694545" y="173.033771" style="fill: #0000ff; stroke: #0000ff"/>
     <use xlink:href="#mede07de4e6" x="214.516364" y="179.188761" style="fill: #0000ff; stroke: #0000ff"/>
     <use xlink:href="#mede07de4e6" x="225.338182" y="182.317168" style="fill: #0000ff; stroke: #0000ff"/>
     <use xlink:href="#mede07de4e6" x="236.16" y="194.627246" style="fill: #0000ff; stroke: #0000ff"/>
     <use xlink:href="#mede07de4e6" x="246.981818" y="218.314436" style="fill: #0000ff; stroke: #0000ff"/>
     <use xlink:href="#mede07de4e6" x="257.803636" y="242.731166" style="fill: #0000ff; stroke: #0000ff"/>
     <use xlink:href="#mede07de4e6" x="268.625455" y="253.630786" style="fill: #0000ff; stroke: #0000ff"/>
     <use xlink:href="#mede07de4e6" x="279.447273" y="246.046743" style="fill: #0000ff; stroke: #0000ff"/>
     <use xlink:href="#mede07de4e6" x="290.269091" y="228.989929" style="fill: #0000ff; stroke: #0000ff"/>
     <use xlink:href="#mede07de4e6" x="301.090909" y="217.630952" style="fill: #0000ff; stroke: #0000ff"/>
     <use xlink:href="#mede07de4e6" x="311.912727" y="220.103405" style="fill: #0000ff; stroke: #0000ff"/>
     <use xlink:href="#mede07de4e6" x="322.734545" y="230.978372" style="fill: #0000ff; stroke: #0000ff"/>
     <use xlink:href="#mede07de4e6" x="333.556364" y="237.304733" style="fill: #0000ff; stroke: #0000ff"/>
     <use xlink:href="#mede07de4e6" x="344.378182" y="231.546259" style="fill: #0000ff; stroke: #0000ff"/>
     <use xlink:href="#mede07de4e6" x="355.2" y="219.407751" style="fill: #0000ff; stroke: #0000ff"/>
     <use xlink:href="#mede07de4e6" x="366.021818" y="215.256012" style="fill: #0000ff; stroke: #0000ff"/>
     <use xlink:href="#mede07de4e6" x="376.843636" y="229.272227" style="fill: #0000ff; stroke: #0000ff"/>
     <use xlink:href="#mede07de4e6" x="387.665455" y="258.107948" style="fill: #0000ff; stroke: #0000ff"/>
     <use xlink:href="#mede07de4e6" x="398.487273" y="287.633643" style="fill: #0000ff; stroke: #0000ff"/>
    </g>
   </g>
   <g id="PathCollection_2">
    <defs>
     <path id="mbeb21c5bee" d="M 0 3 
C 0.795609 3 1.55874 2.683901 2.12132 2.12132 
C 2.683901 1.55874 3 0.795609 3 0 
C 3 -0.795609 2.683901 -1.55874 2.12132 -2.12132 
C 1.55874 -2.683901 0.795609 -3 0 -3 
C -0.795609 -3 -1.55874 -2.683901 -2.12132 -2.12132 
C -2.683901 -1.55874 -3 -0.795609 -3 0 
C -3 0.795609 -2.683901 1.55874 -2.12132 2.12132 
C -1.55874 2.683901 -0.795609 3 0 3 
z
" style="stroke: #ff0000"/>
    </defs>
    <g clip-path="url(#p83a5849612)">
     <use xlink:href="#mbeb21c5bee" x="73.832727" y="135.750469" style="fill: #ff0000; stroke: #ff0000"/>
     <use xlink:href="#mbeb21c5bee" x="84.654545" y="71.831424" style="fill: #ff0000; stroke: #ff0000"/>
     <use xlink:href="#mbeb21c5bee" x="95.476364" y="83.958299" style="fill: #ff0000; stroke: #ff0000"/>
     <use xlink:href="#mbeb21c5bee" x="106.298182" y="53.568" style="fill: #ff0000; stroke: #ff0000"/>
     <use xlink:href="#mbeb21c5bee" x="117.12" y="104.454906" style="fill: #ff0000; stroke: #ff0000"/>
     <use xlink:href="#mbeb21c5bee" x="127.941818" y="135.490787" style="fill: #ff0000; stroke: #ff0000"/>
     <use xlink:href="#mbeb21c5bee" x="138.763636" y="87.435036" style="fill: #ff0000; stroke: #ff0000"/>
     <use xlink:href="#mbeb21c5bee" x="149.585455" y="69.087623" style="fill: #ff0000; stroke: #ff0000"/>
     <use xlink:href="#mbeb21c5bee" x="160.407273" y="120.657784" style="fill: #ff0000; stroke: #ff0000"/>
     <use xlink:href="#mbeb21c5bee" x="171.229091" y="59.506851" style="fill: #ff0000; stroke: #ff0000"/>
     <use xlink:href="#mbeb21c5bee" x="182.050909" y="138.527741" style="fill: #ff0000; stroke: #ff0000"/>
     <use xlink:href="#mbeb21c5bee" x="192.872727" y="180.427966" style="fill: #ff0000; stroke: #ff0000"/>
     <use xlink:href="#mbeb21c5bee" x="203.694545" y="141.191885" style="fill: #ff0000; stroke: #ff0000"/>
     <use xlink:href="#mbeb21c5bee" x="214.516364" y="175.693337" style="fill: #ff0000; stroke: #ff0000"/>
     <use xlink:href="#mbeb21c5bee" x="225.338182" y="178.851558" style="fill: #ff0000; stroke: #ff0000"/>
     <use xlink:href="#mbeb21c5bee" x="236.16" y="228.992059" style="fill: #ff0000; stroke: #ff0000"/>
     <use xlink:href="#mbeb21c5bee" x="246.981818" y="205.590134" style="fill: #ff0000; stroke: #ff0000"/>
     <use xlink:href="#mbeb21c5bee" x="257.803636" y="255.414402" style="fill: #ff0000; stroke: #ff0000"/>
     <use xlink:href="#mbeb21c5bee" x="268.625455" y="260.905981" style="fill: #ff0000; stroke: #ff0000"/>
     <use xlink:href="#mbeb21c5bee" x="279.447273" y="223.213548" style="fill: #ff0000; stroke: #ff0000"/>
     <use xlink:href="#mbeb21c5bee" x="290.269091" y="249.200113" style="fill: #ff0000; stroke: #ff0000"/>
     <use xlink:href="#mbeb21c5bee" x="301.090909" y="231.111222" style="fill: #ff0000; stroke: #ff0000"/>
     <use xlink:href="#mbeb21c5bee" x="311.912727" y="184.28603" style="fill: #ff0000; stroke: #ff0000"/>
     <use xlink:href="#mbeb21c5bee" x="322.734545" y="248.439327" style="fill: #ff0000; stroke: #ff0000"/>
     <use xlink:href="#mbeb21c5bee" x="333.556364" y="277.725961" style="fill: #ff0000; stroke: #ff0000"/>
     <use xlink:href="#mbeb21c5bee" x="344.378182" y="263.53116" style="fill: #ff0000; stroke: #ff0000"/>
     <use xlink:href="#mbeb21c5bee" x="355.2" y="224.919958" style="fill: #ff0000; stroke: #ff0000"/>
     <use xlink:href="#mbeb21c5bee" x="366.021818" y="181.207162" style="fill: #ff0000; stroke: #ff0000"/>
     <use xlink:href="#mbeb21c5bee" x="376.843636" y="201.072943" style="fill: #ff0000; stroke: #ff0000"/>
     <use xlink:href="#mbeb21c5bee" x="387.665455" y="246.35795" style="fill: #ff0000; stroke: #ff0000"/>
     <use xlink:href="#mbeb21c5bee" x="398.487273" y="293.85681" style="fill: #ff0000; stroke: #ff0000"/>
    </g>
   </g>
   <g id="matplotlib.axis_1">
    <g id="xtick_1">
     <g id="line2d_1">
      <defs>
       <path id="md8739f4a5f" d="M 0 0 
L 0 3.5 
" style="stroke: #000000; stroke-width: 0.8"/>
      </defs>
      <g>
       <use xlink:href="#md8739f4a5f" x="73.832727" y="307.584" style="stroke: #000000; stroke-width: 0.8"/>
      </g>
     </g>
     <g id="text_1">
      <!-- 10 -->
      <g transform="translate(67.470227 322.182437) scale(0.1 -0.1)">
       <defs>
        <path id="DejaVuSans-31" d="M 794 531 
L 1825 531 
L 1825 4091 
L 703 3866 
L 703 4441 
L 1819 4666 
L 2450 4666 
L 2450 531 
L 3481 531 
L 3481 0 
L 794 0 
L 794 531 
z
" transform="scale(0.015625)"/>
        <path id="DejaVuSans-30" d="M 2034 4250 
Q 1547 4250 1301 3770 
Q 1056 3291 1056 2328 
Q 1056 1369 1301 889 
Q 1547 409 2034 409 
Q 2525 409 2770 889 
Q 3016 1369 3016 2328 
Q 3016 3291 2770 3770 
Q 2525 4250 2034 4250 
z
M 2034 4750 
Q 2819 4750 3233 4129 
Q 3647 3509 3647 2328 
Q 3647 1150 3233 529 
Q 2819 -91 2034 -91 
Q 1250 -91 836 529 
Q 422 1150 422 2328 
Q 422 3509 836 4129 
Q 1250 4750 2034 4750 
z
" transform="scale(0.015625)"/>
       </defs>
       <use xlink:href="#DejaVuSans-31"/>
       <use xlink:href="#DejaVuSans-30" x="63.623047"/>
      </g>
     </g>
    </g>
    <g id="xtick_2">
     <g id="line2d_2">
      <g>
       <use xlink:href="#md8739f4a5f" x="138.763636" y="307.584" style="stroke: #000000; stroke-width: 0.8"/>
      </g>
     </g>
     <g id="text_2">
      <!-- 12 -->
      <g transform="translate(132.401136 322.182437) scale(0.1 -0.1)">
       <defs>
        <path id="DejaVuSans-32" d="M 1228 531 
L 3431 531 
L 3431 0 
L 469 0 
L 469 531 
Q 828 903 1448 1529 
Q 2069 2156 2228 2338 
Q 2531 2678 2651 2914 
Q 2772 3150 2772 3378 
Q 2772 3750 2511 3984 
Q 2250 4219 1831 4219 
Q 1534 4219 1204 4116 
Q 875 4013 500 3803 
L 500 4441 
Q 881 4594 1212 4672 
Q 1544 4750 1819 4750 
Q 2544 4750 2975 4387 
Q 3406 4025 3406 3419 
Q 3406 3131 3298 2873 
Q 3191 2616 2906 2266 
Q 2828 2175 2409 1742 
Q 1991 1309 1228 531 
z
" transform="scale(0.015625)"/>
       </defs>
       <use xlink:href="#DejaVuSans-31"/>
       <use xlink:href="#DejaVuSans-32" x="63.623047"/>
      </g>
     </g>
    </g>
    <g id="xtick_3">
     <g id="line2d_3">
      <g>
       <use xlink:href="#md8739f4a5f" x="203.694545" y="307.584" style="stroke: #000000; stroke-width: 0.8"/>
      </g>
     </g>
     <g id="text_3">
      <!-- 14 -->
      <g transform="translate(197.332045 322.182437) scale(0.1 -0.1)">
       <defs>
        <path id="DejaVuSans-34" d="M 2419 4116 
L 825 1625 
L 2419 1625 
L 2419 4116 
z
M 2253 4666 
L 3047 4666 
L 3047 1625 
L 3713 1625 
L 3713 1100 
L 3047 1100 
L 3047 0 
L 2419 0 
L 2419 1100 
L 313 1100 
L 313 1709 
L 2253 4666 
z
" transform="scale(0.015625)"/>
       </defs>
       <use xlink:href="#DejaVuSans-31"/>
       <use xlink:href="#DejaVuSans-34" x="63.623047"/>
      </g>
     </g>
    </g>
    <g id="xtick_4">
     <g id="line2d_4">
      <g>
       <use xlink:href="#md8739f4a5f" x="268.625455" y="307.584" style="stroke: #000000; stroke-width: 0.8"/>
      </g>
     </g>
     <g id="text_4">
      <!-- 16 -->
      <g transform="translate(262.262955 322.182437) scale(0.1 -0.1)">
       <defs>
        <path id="DejaVuSans-36" d="M 2113 2584 
Q 1688 2584 1439 2293 
Q 1191 2003 1191 1497 
Q 1191 994 1439 701 
Q 1688 409 2113 409 
Q 2538 409 2786 701 
Q 3034 994 3034 1497 
Q 3034 2003 2786 2293 
Q 2538 2584 2113 2584 
z
M 3366 4563 
L 3366 3988 
Q 3128 4100 2886 4159 
Q 2644 4219 2406 4219 
Q 1781 4219 1451 3797 
Q 1122 3375 1075 2522 
Q 1259 2794 1537 2939 
Q 1816 3084 2150 3084 
Q 2853 3084 3261 2657 
Q 3669 2231 3669 1497 
Q 3669 778 3244 343 
Q 2819 -91 2113 -91 
Q 1303 -91 875 529 
Q 447 1150 447 2328 
Q 447 3434 972 4092 
Q 1497 4750 2381 4750 
Q 2619 4750 2861 4703 
Q 3103 4656 3366 4563 
z
" transform="scale(0.015625)"/>
       </defs>
       <use xlink:href="#DejaVuSans-31"/>
       <use xlink:href="#DejaVuSans-36" x="63.623047"/>
      </g>
     </g>
    </g>
    <g id="xtick_5">
     <g id="line2d_5">
      <g>
       <use xlink:href="#md8739f4a5f" x="333.556364" y="307.584" style="stroke: #000000; stroke-width: 0.8"/>
      </g>
     </g>
     <g id="text_5">
      <!-- 18 -->
      <g transform="translate(327.193864 322.182437) scale(0.1 -0.1)">
       <defs>
        <path id="DejaVuSans-38" d="M 2034 2216 
Q 1584 2216 1326 1975 
Q 1069 1734 1069 1313 
Q 1069 891 1326 650 
Q 1584 409 2034 409 
Q 2484 409 2743 651 
Q 3003 894 3003 1313 
Q 3003 1734 2745 1975 
Q 2488 2216 2034 2216 
z
M 1403 2484 
Q 997 2584 770 2862 
Q 544 3141 544 3541 
Q 544 4100 942 4425 
Q 1341 4750 2034 4750 
Q 2731 4750 3128 4425 
Q 3525 4100 3525 3541 
Q 3525 3141 3298 2862 
Q 3072 2584 2669 2484 
Q 3125 2378 3379 2068 
Q 3634 1759 3634 1313 
Q 3634 634 3220 271 
Q 2806 -91 2034 -91 
Q 1263 -91 848 271 
Q 434 634 434 1313 
Q 434 1759 690 2068 
Q 947 2378 1403 2484 
z
M 1172 3481 
Q 1172 3119 1398 2916 
Q 1625 2713 2034 2713 
Q 2441 2713 2670 2916 
Q 2900 3119 2900 3481 
Q 2900 3844 2670 4047 
Q 2441 4250 2034 4250 
Q 1625 4250 1398 4047 
Q 1172 3844 1172 3481 
z
" transform="scale(0.015625)"/>
       </defs>
       <use xlink:href="#DejaVuSans-31"/>
       <use xlink:href="#DejaVuSans-38" x="63.623047"/>
      </g>
     </g>
    </g>
    <g id="xtick_6">
     <g id="line2d_6">
      <g>
       <use xlink:href="#md8739f4a5f" x="398.487273" y="307.584" style="stroke: #000000; stroke-width: 0.8"/>
      </g>
     </g>
     <g id="text_6">
      <!-- 20 -->
      <g transform="translate(392.124773 322.182437) scale(0.1 -0.1)">
       <use xlink:href="#DejaVuSans-32"/>
       <use xlink:href="#DejaVuSans-30" x="63.623047"/>
      </g>
     </g>
    </g>
    <g id="text_7">
     <!-- x -->
     <g transform="translate(233.200625 335.860562) scale(0.1 -0.1)">
      <defs>
       <path id="DejaVuSans-78" d="M 3513 3500 
L 2247 1797 
L 3578 0 
L 2900 0 
L 1881 1375 
L 863 0 
L 184 0 
L 1544 1831 
L 300 3500 
L 978 3500 
L 1906 2253 
L 2834 3500 
L 3513 3500 
z
" transform="scale(0.015625)"/>
      </defs>
      <use xlink:href="#DejaVuSans-78"/>
     </g>
    </g>
   </g>
   <g id="matplotlib.axis_2">
    <g id="ytick_1">
     <g id="line2d_7">
      <defs>
       <path id="m8651442b42" d="M 0 0 
L -3.5 0 
" style="stroke: #000000; stroke-width: 0.8"/>
      </defs>
      <g>
       <use xlink:href="#m8651442b42" x="57.6" y="292.07361" style="stroke: #000000; stroke-width: 0.8"/>
      </g>
     </g>
     <g id="text_8">
      <!-- −60 -->
      <g transform="translate(29.495313 295.872829) scale(0.1 -0.1)">
       <defs>
        <path id="DejaVuSans-2212" d="M 678 2272 
L 4684 2272 
L 4684 1741 
L 678 1741 
L 678 2272 
z
" transform="scale(0.015625)"/>
       </defs>
       <use xlink:href="#DejaVuSans-2212"/>
       <use xlink:href="#DejaVuSans-36" x="83.789062"/>
       <use xlink:href="#DejaVuSans-30" x="147.412109"/>
      </g>
     </g>
    </g>
    <g id="ytick_2">
     <g id="line2d_8">
      <g>
       <use xlink:href="#m8651442b42" x="57.6" y="244.424834" style="stroke: #000000; stroke-width: 0.8"/>
      </g>
     </g>
     <g id="text_9">
      <!-- −50 -->
      <g transform="translate(29.495313 248.224053) scale(0.1 -0.1)">
       <defs>
        <path id="DejaVuSans-35" d="M 691 4666 
L 3169 4666 
L 3169 4134 
L 1269 4134 
L 1269 2991 
Q 1406 3038 1543 3061 
Q 1681 3084 1819 3084 
Q 2600 3084 3056 2656 
Q 3513 2228 3513 1497 
Q 3513 744 3044 326 
Q 2575 -91 1722 -91 
Q 1428 -91 1123 -41 
Q 819 9 494 109 
L 494 744 
Q 775 591 1075 516 
Q 1375 441 1709 441 
Q 2250 441 2565 725 
Q 2881 1009 2881 1497 
Q 2881 1984 2565 2268 
Q 2250 2553 1709 2553 
Q 1456 2553 1204 2497 
Q 953 2441 691 2322 
L 691 4666 
z
" transform="scale(0.015625)"/>
       </defs>
       <use xlink:href="#DejaVuSans-2212"/>
       <use xlink:href="#DejaVuSans-35" x="83.789062"/>
       <use xlink:href="#DejaVuSans-30" x="147.412109"/>
      </g>
     </g>
    </g>
    <g id="ytick_3">
     <g id="line2d_9">
      <g>
       <use xlink:href="#m8651442b42" x="57.6" y="196.776058" style="stroke: #000000; stroke-width: 0.8"/>
      </g>
     </g>
     <g id="text_10">
      <!-- −40 -->
      <g transform="translate(29.495313 200.575277) scale(0.1 -0.1)">
       <use xlink:href="#DejaVuSans-2212"/>
       <use xlink:href="#DejaVuSans-34" x="83.789062"/>
       <use xlink:href="#DejaVuSans-30" x="147.412109"/>
      </g>
     </g>
    </g>
    <g id="ytick_4">
     <g id="line2d_10">
      <g>
       <use xlink:href="#m8651442b42" x="57.6" y="149.127282" style="stroke: #000000; stroke-width: 0.8"/>
      </g>
     </g>
     <g id="text_11">
      <!-- −30 -->
      <g transform="translate(29.495313 152.926501) scale(0.1 -0.1)">
       <defs>
        <path id="DejaVuSans-33" d="M 2597 2516 
Q 3050 2419 3304 2112 
Q 3559 1806 3559 1356 
Q 3559 666 3084 287 
Q 2609 -91 1734 -91 
Q 1441 -91 1130 -33 
Q 819 25 488 141 
L 488 750 
Q 750 597 1062 519 
Q 1375 441 1716 441 
Q 2309 441 2620 675 
Q 2931 909 2931 1356 
Q 2931 1769 2642 2001 
Q 2353 2234 1838 2234 
L 1294 2234 
L 1294 2753 
L 1863 2753 
Q 2328 2753 2575 2939 
Q 2822 3125 2822 3475 
Q 2822 3834 2567 4026 
Q 2313 4219 1838 4219 
Q 1578 4219 1281 4162 
Q 984 4106 628 3988 
L 628 4550 
Q 988 4650 1302 4700 
Q 1616 4750 1894 4750 
Q 2613 4750 3031 4423 
Q 3450 4097 3450 3541 
Q 3450 3153 3228 2886 
Q 3006 2619 2597 2516 
z
" transform="scale(0.015625)"/>
       </defs>
       <use xlink:href="#DejaVuSans-2212"/>
       <use xlink:href="#DejaVuSans-33" x="83.789062"/>
       <use xlink:href="#DejaVuSans-30" x="147.412109"/>
      </g>
     </g>
    </g>
    <g id="ytick_5">
     <g id="line2d_11">
      <g>
       <use xlink:href="#m8651442b42" x="57.6" y="101.478506" style="stroke: #000000; stroke-width: 0.8"/>
      </g>
     </g>
     <g id="text_12">
      <!-- −20 -->
      <g transform="translate(29.495313 105.277725) scale(0.1 -0.1)">
       <use xlink:href="#DejaVuSans-2212"/>
       <use xlink:href="#DejaVuSans-32" x="83.789062"/>
       <use xlink:href="#DejaVuSans-30" x="147.412109"/>
      </g>
     </g>
    </g>
    <g id="ytick_6">
     <g id="line2d_12">
      <g>
       <use xlink:href="#m8651442b42" x="57.6" y="53.82973" style="stroke: #000000; stroke-width: 0.8"/>
      </g>
     </g>
     <g id="text_13">
      <!-- −10 -->
      <g transform="translate(29.495313 57.628949) scale(0.1 -0.1)">
       <use xlink:href="#DejaVuSans-2212"/>
       <use xlink:href="#DejaVuSans-31" x="83.789062"/>
       <use xlink:href="#DejaVuSans-30" x="147.412109"/>
      </g>
     </g>
    </g>
    <g id="text_14">
     <!-- y -->
     <g transform="translate(23.415625 177.487375) rotate(-90) scale(0.1 -0.1)">
      <defs>
       <path id="DejaVuSans-79" d="M 2059 -325 
Q 1816 -950 1584 -1140 
Q 1353 -1331 966 -1331 
L 506 -1331 
L 506 -850 
L 844 -850 
Q 1081 -850 1212 -737 
Q 1344 -625 1503 -206 
L 1606 56 
L 191 3500 
L 800 3500 
L 1894 763 
L 2988 3500 
L 3597 3500 
L 2059 -325 
z
" transform="scale(0.015625)"/>
      </defs>
      <use xlink:href="#DejaVuSans-79"/>
     </g>
    </g>
   </g>
   <g id="line2d_13">
    <path d="M 73.832727 126.633747 
L 77.079273 121.947062 
L 80.325818 116.575977 
L 83.572364 110.972056 
L 86.818909 105.587981 
L 90.065455 100.839183 
L 93.312 97.068989 
L 96.558545 94.520366 
L 99.805091 93.316765 
L 103.051636 93.45375 
L 106.298182 94.802136 
L 109.544727 97.12232 
L 112.791273 100.088508 
L 116.037818 103.320639 
L 119.284364 106.421123 
L 122.530909 109.013093 
L 125.777455 110.77672 
L 129.024 111.480317 
L 132.270545 111.00344 
L 135.517091 109.349885 
L 138.763636 106.64941 
L 142.010182 103.147993 
L 145.256727 99.187498 
L 148.503273 95.176521 
L 151.749818 91.555042 
L 154.996364 88.755991 
L 158.242909 87.167179 
L 161.489455 87.096986 
L 164.736 88.74685 
L 167.982545 92.193034 
L 171.229091 97.379294 
L 174.475636 104.121101 
L 177.722182 112.121068 
L 180.968727 120.994187 
L 184.215273 130.300659 
L 187.461818 139.583386 
L 190.708364 148.406804 
L 193.954909 156.39359 
L 197.201455 163.256013 
L 200.448 168.819127 
L 203.694545 173.033771 
L 206.941091 175.978247 
L 210.187636 177.848533 
L 213.434182 178.937955 
L 216.680727 179.608154 
L 219.927273 180.25396 
L 223.173818 181.265351 
L 226.420364 182.989926 
L 229.666909 185.699253 
L 232.913455 189.562142 
L 236.16 194.627246 
L 239.406545 200.816569 
L 242.653091 207.930487 
L 245.899636 215.66384 
L 249.146182 223.631693 
L 252.392727 231.402465 
L 255.639273 238.535487 
L 258.885818 244.619639 
L 262.132364 249.309626 
L 265.378909 252.356657 
L 268.625455 253.630786 
L 271.872 253.132913 
L 275.118545 250.995386 
L 278.365091 247.471122 
L 281.611636 242.912226 
L 284.858182 237.739995 
L 288.104727 232.40898 
L 291.351273 227.368289 
L 294.597818 223.023589 
L 297.844364 219.703146 
L 301.090909 217.630952 
L 304.337455 216.909288 
L 307.584 217.512263 
L 310.830545 219.290886 
L 314.077091 221.989178 
L 317.323636 225.269869 
L 320.570182 228.747345 
L 323.816727 232.024885 
L 327.063273 234.732822 
L 330.309818 236.564205 
L 333.556364 237.304733 
L 336.802909 236.854284 
L 340.049455 235.238073 
L 343.296 232.606425 
L 346.542545 229.223172 
L 349.789091 225.443678 
L 353.035636 221.684455 
L 356.282182 218.387053 
L 359.528727 215.979453 
L 362.775273 214.838397 
L 366.021818 215.256012 
L 369.268364 217.413716 
L 372.514909 221.365725 
L 375.761455 227.033645 
L 379.008 234.212633 
L 382.254545 242.588594 
L 385.501091 251.764875 
L 388.747636 261.296094 
L 391.994182 270.726103 
L 395.240727 279.626697 
" clip-path="url(#p83a5849612)" style="fill: none; stroke: #1f77b4; stroke-width: 1.5; stroke-linecap: square"/>
   </g>
   <g id="line2d_14">
    <path d="M 73.832727 128.812734 
L 84.654545 105.788905 
L 95.476364 84.581379 
L 106.298182 81.234778 
L 117.12 94.303956 
L 127.941818 107.331929 
L 138.763636 105.128154 
L 149.585455 88.754283 
L 160.407273 75.32699 
L 171.229091 82.733107 
L 182.050909 113.259863 
L 192.872727 151.181963 
L 203.694545 176.557839 
L 214.516364 182.62346 
L 225.338182 180.895251 
L 236.16 189.413153 
L 246.981818 215.061614 
L 257.803636 246.342673 
L 268.625455 263.344171 
L 279.447273 255.80459 
L 290.269091 232.692333 
L 301.090909 214.476207 
L 311.912727 215.136686 
L 322.734545 230.365177 
L 333.556364 242.684851 
L 344.378182 238.657184 
L 355.2 222.229196 
L 366.021818 211.84069 
L 376.843636 223.869967 
L 387.665455 257.593911 
L 398.487273 295.488 
" clip-path="url(#p83a5849612)" style="fill: none; stroke: #008000; stroke-width: 1.5; stroke-linecap: square"/>
   </g>
   <g id="patch_3">
    <path d="M 57.6 307.584 
L 57.6 41.472 
" style="fill: none; stroke: #000000; stroke-width: 0.8; stroke-linejoin: miter; stroke-linecap: square"/>
   </g>
   <g id="patch_4">
    <path d="M 414.72 307.584 
L 414.72 41.472 
" style="fill: none; stroke: #000000; stroke-width: 0.8; stroke-linejoin: miter; stroke-linecap: square"/>
   </g>
   <g id="patch_5">
    <path d="M 57.6 307.584 
L 414.72 307.584 
" style="fill: none; stroke: #000000; stroke-width: 0.8; stroke-linejoin: miter; stroke-linecap: square"/>
   </g>
   <g id="patch_6">
    <path d="M 57.6 41.472 
L 414.72 41.472 
" style="fill: none; stroke: #000000; stroke-width: 0.8; stroke-linejoin: miter; stroke-linecap: square"/>
   </g>
   <g id="text_15">
    <!-- mu = 0, sigma = 5 n = 30. -->
    <g transform="translate(155.165625 35.472) scale(0.12 -0.12)">
     <defs>
      <path id="DejaVuSans-6d" d="M 3328 2828 
Q 3544 3216 3844 3400 
Q 4144 3584 4550 3584 
Q 5097 3584 5394 3201 
Q 5691 2819 5691 2113 
L 5691 0 
L 5113 0 
L 5113 2094 
Q 5113 2597 4934 2840 
Q 4756 3084 4391 3084 
Q 3944 3084 3684 2787 
Q 3425 2491 3425 1978 
L 3425 0 
L 2847 0 
L 2847 2094 
Q 2847 2600 2669 2842 
Q 2491 3084 2119 3084 
Q 1678 3084 1418 2786 
Q 1159 2488 1159 1978 
L 1159 0 
L 581 0 
L 581 3500 
L 1159 3500 
L 1159 2956 
Q 1356 3278 1631 3431 
Q 1906 3584 2284 3584 
Q 2666 3584 2933 3390 
Q 3200 3197 3328 2828 
z
" transform="scale(0.015625)"/>
      <path id="DejaVuSans-75" d="M 544 1381 
L 544 3500 
L 1119 3500 
L 1119 1403 
Q 1119 906 1312 657 
Q 1506 409 1894 409 
Q 2359 409 2629 706 
Q 2900 1003 2900 1516 
L 2900 3500 
L 3475 3500 
L 3475 0 
L 2900 0 
L 2900 538 
Q 2691 219 2414 64 
Q 2138 -91 1772 -91 
Q 1169 -91 856 284 
Q 544 659 544 1381 
z
M 1991 3584 
L 1991 3584 
z
" transform="scale(0.015625)"/>
      <path id="DejaVuSans-20" transform="scale(0.015625)"/>
      <path id="DejaVuSans-3d" d="M 678 2906 
L 4684 2906 
L 4684 2381 
L 678 2381 
L 678 2906 
z
M 678 1631 
L 4684 1631 
L 4684 1100 
L 678 1100 
L 678 1631 
z
" transform="scale(0.015625)"/>
      <path id="DejaVuSans-2c" d="M 750 794 
L 1409 794 
L 1409 256 
L 897 -744 
L 494 -744 
L 750 256 
L 750 794 
z
" transform="scale(0.015625)"/>
      <path id="DejaVuSans-73" d="M 2834 3397 
L 2834 2853 
Q 2591 2978 2328 3040 
Q 2066 3103 1784 3103 
Q 1356 3103 1142 2972 
Q 928 2841 928 2578 
Q 928 2378 1081 2264 
Q 1234 2150 1697 2047 
L 1894 2003 
Q 2506 1872 2764 1633 
Q 3022 1394 3022 966 
Q 3022 478 2636 193 
Q 2250 -91 1575 -91 
Q 1294 -91 989 -36 
Q 684 19 347 128 
L 347 722 
Q 666 556 975 473 
Q 1284 391 1588 391 
Q 1994 391 2212 530 
Q 2431 669 2431 922 
Q 2431 1156 2273 1281 
Q 2116 1406 1581 1522 
L 1381 1569 
Q 847 1681 609 1914 
Q 372 2147 372 2553 
Q 372 3047 722 3315 
Q 1072 3584 1716 3584 
Q 2034 3584 2315 3537 
Q 2597 3491 2834 3397 
z
" transform="scale(0.015625)"/>
      <path id="DejaVuSans-69" d="M 603 3500 
L 1178 3500 
L 1178 0 
L 603 0 
L 603 3500 
z
M 603 4863 
L 1178 4863 
L 1178 4134 
L 603 4134 
L 603 4863 
z
" transform="scale(0.015625)"/>
      <path id="DejaVuSans-67" d="M 2906 1791 
Q 2906 2416 2648 2759 
Q 2391 3103 1925 3103 
Q 1463 3103 1205 2759 
Q 947 2416 947 1791 
Q 947 1169 1205 825 
Q 1463 481 1925 481 
Q 2391 481 2648 825 
Q 2906 1169 2906 1791 
z
M 3481 434 
Q 3481 -459 3084 -895 
Q 2688 -1331 1869 -1331 
Q 1566 -1331 1297 -1286 
Q 1028 -1241 775 -1147 
L 775 -588 
Q 1028 -725 1275 -790 
Q 1522 -856 1778 -856 
Q 2344 -856 2625 -561 
Q 2906 -266 2906 331 
L 2906 616 
Q 2728 306 2450 153 
Q 2172 0 1784 0 
Q 1141 0 747 490 
Q 353 981 353 1791 
Q 353 2603 747 3093 
Q 1141 3584 1784 3584 
Q 2172 3584 2450 3431 
Q 2728 3278 2906 2969 
L 2906 3500 
L 3481 3500 
L 3481 434 
z
" transform="scale(0.015625)"/>
      <path id="DejaVuSans-61" d="M 2194 1759 
Q 1497 1759 1228 1600 
Q 959 1441 959 1056 
Q 959 750 1161 570 
Q 1363 391 1709 391 
Q 2188 391 2477 730 
Q 2766 1069 2766 1631 
L 2766 1759 
L 2194 1759 
z
M 3341 1997 
L 3341 0 
L 2766 0 
L 2766 531 
Q 2569 213 2275 61 
Q 1981 -91 1556 -91 
Q 1019 -91 701 211 
Q 384 513 384 1019 
Q 384 1609 779 1909 
Q 1175 2209 1959 2209 
L 2766 2209 
L 2766 2266 
Q 2766 2663 2505 2880 
Q 2244 3097 1772 3097 
Q 1472 3097 1187 3025 
Q 903 2953 641 2809 
L 641 3341 
Q 956 3463 1253 3523 
Q 1550 3584 1831 3584 
Q 2591 3584 2966 3190 
Q 3341 2797 3341 1997 
z
" transform="scale(0.015625)"/>
      <path id="DejaVuSans-6e" d="M 3513 2113 
L 3513 0 
L 2938 0 
L 2938 2094 
Q 2938 2591 2744 2837 
Q 2550 3084 2163 3084 
Q 1697 3084 1428 2787 
Q 1159 2491 1159 1978 
L 1159 0 
L 581 0 
L 581 3500 
L 1159 3500 
L 1159 2956 
Q 1366 3272 1645 3428 
Q 1925 3584 2291 3584 
Q 2894 3584 3203 3211 
Q 3513 2838 3513 2113 
z
" transform="scale(0.015625)"/>
      <path id="DejaVuSans-2e" d="M 684 794 
L 1344 794 
L 1344 0 
L 684 0 
L 684 794 
z
" transform="scale(0.015625)"/>
     </defs>
     <use xlink:href="#DejaVuSans-6d"/>
     <use xlink:href="#DejaVuSans-75" x="97.412109"/>
     <use xlink:href="#DejaVuSans-20" x="160.791016"/>
     <use xlink:href="#DejaVuSans-3d" x="192.578125"/>
     <use xlink:href="#DejaVuSans-20" x="276.367188"/>
     <use xlink:href="#DejaVuSans-30" x="308.154297"/>
     <use xlink:href="#DejaVuSans-2c" x="371.777344"/>
     <use xlink:href="#DejaVuSans-20" x="403.564453"/>
     <use xlink:href="#DejaVuSans-73" x="435.351562"/>
     <use xlink:href="#DejaVuSans-69" x="487.451172"/>
     <use xlink:href="#DejaVuSans-67" x="515.234375"/>
     <use xlink:href="#DejaVuSans-6d" x="578.710938"/>
     <use xlink:href="#DejaVuSans-61" x="676.123047"/>
     <use xlink:href="#DejaVuSans-20" x="737.402344"/>
     <use xlink:href="#DejaVuSans-3d" x="769.189453"/>
     <use xlink:href="#DejaVuSans-20" x="852.978516"/>
     <use xlink:href="#DejaVuSans-35" x="884.765625"/>
     <use xlink:href="#DejaVuSans-20" x="948.388672"/>
     <use xlink:href="#DejaVuSans-6e" x="980.175781"/>
     <use xlink:href="#DejaVuSans-20" x="1043.554688"/>
     <use xlink:href="#DejaVuSans-3d" x="1075.341797"/>
     <use xlink:href="#DejaVuSans-20" x="1159.130859"/>
     <use xlink:href="#DejaVuSans-33" x="1190.917969"/>
     <use xlink:href="#DejaVuSans-30" x="1254.541016"/>
     <use xlink:href="#DejaVuSans-2e" x="1318.164062"/>
    </g>
   </g>
   <g id="legend_1">
    <g id="patch_7">
     <path d="M 306.046562 108.1845 
L 407.72 108.1845 
Q 409.72 108.1845 409.72 106.1845 
L 409.72 48.472 
Q 409.72 46.472 407.72 46.472 
L 306.046562 46.472 
Q 304.046562 46.472 304.046562 48.472 
L 304.046562 106.1845 
Q 304.046562 108.1845 306.046562 108.1845 
z
" style="fill: #ffffff; opacity: 0.8; stroke: #cccccc; stroke-linejoin: miter"/>
    </g>
    <g id="line2d_15">
     <path d="M 308.046562 54.570438 
L 318.046562 54.570438 
L 328.046562 54.570438 
" style="fill: none; stroke: #1f77b4; stroke-width: 1.5; stroke-linecap: square"/>
    </g>
    <g id="text_16">
     <!-- G(x) -->
     <g transform="translate(336.046562 58.070438) scale(0.1 -0.1)">
      <defs>
       <path id="DejaVuSans-47" d="M 3809 666 
L 3809 1919 
L 2778 1919 
L 2778 2438 
L 4434 2438 
L 4434 434 
Q 4069 175 3628 42 
Q 3188 -91 2688 -91 
Q 1594 -91 976 548 
Q 359 1188 359 2328 
Q 359 3472 976 4111 
Q 1594 4750 2688 4750 
Q 3144 4750 3555 4637 
Q 3966 4525 4313 4306 
L 4313 3634 
Q 3963 3931 3569 4081 
Q 3175 4231 2741 4231 
Q 1884 4231 1454 3753 
Q 1025 3275 1025 2328 
Q 1025 1384 1454 906 
Q 1884 428 2741 428 
Q 3075 428 3337 486 
Q 3600 544 3809 666 
z
" transform="scale(0.015625)"/>
       <path id="DejaVuSans-28" d="M 1984 4856 
Q 1566 4138 1362 3434 
Q 1159 2731 1159 2009 
Q 1159 1288 1364 580 
Q 1569 -128 1984 -844 
L 1484 -844 
Q 1016 -109 783 600 
Q 550 1309 550 2009 
Q 550 2706 781 3412 
Q 1013 4119 1484 4856 
L 1984 4856 
z
" transform="scale(0.015625)"/>
       <path id="DejaVuSans-29" d="M 513 4856 
L 1013 4856 
Q 1481 4119 1714 3412 
Q 1947 2706 1947 2009 
Q 1947 1309 1714 600 
Q 1481 -109 1013 -844 
L 513 -844 
Q 928 -128 1133 580 
Q 1338 1288 1338 2009 
Q 1338 2731 1133 3434 
Q 928 4138 513 4856 
z
" transform="scale(0.015625)"/>
      </defs>
      <use xlink:href="#DejaVuSans-47"/>
      <use xlink:href="#DejaVuSans-28" x="77.490234"/>
      <use xlink:href="#DejaVuSans-78" x="116.503906"/>
      <use xlink:href="#DejaVuSans-29" x="175.683594"/>
     </g>
    </g>
    <g id="PathCollection_3">
     <g>
      <use xlink:href="#mede07de4e6" x="318.046562" y="70.123563" style="fill: #0000ff; stroke: #0000ff"/>
     </g>
    </g>
    <g id="text_17">
     <!-- Bez szumu -->
     <g transform="translate(336.046562 72.748563) scale(0.1 -0.1)">
      <defs>
       <path id="DejaVuSans-42" d="M 1259 2228 
L 1259 519 
L 2272 519 
Q 2781 519 3026 730 
Q 3272 941 3272 1375 
Q 3272 1813 3026 2020 
Q 2781 2228 2272 2228 
L 1259 2228 
z
M 1259 4147 
L 1259 2741 
L 2194 2741 
Q 2656 2741 2882 2914 
Q 3109 3088 3109 3444 
Q 3109 3797 2882 3972 
Q 2656 4147 2194 4147 
L 1259 4147 
z
M 628 4666 
L 2241 4666 
Q 2963 4666 3353 4366 
Q 3744 4066 3744 3513 
Q 3744 3084 3544 2831 
Q 3344 2578 2956 2516 
Q 3422 2416 3680 2098 
Q 3938 1781 3938 1306 
Q 3938 681 3513 340 
Q 3088 0 2303 0 
L 628 0 
L 628 4666 
z
" transform="scale(0.015625)"/>
       <path id="DejaVuSans-65" d="M 3597 1894 
L 3597 1613 
L 953 1613 
Q 991 1019 1311 708 
Q 1631 397 2203 397 
Q 2534 397 2845 478 
Q 3156 559 3463 722 
L 3463 178 
Q 3153 47 2828 -22 
Q 2503 -91 2169 -91 
Q 1331 -91 842 396 
Q 353 884 353 1716 
Q 353 2575 817 3079 
Q 1281 3584 2069 3584 
Q 2775 3584 3186 3129 
Q 3597 2675 3597 1894 
z
M 3022 2063 
Q 3016 2534 2758 2815 
Q 2500 3097 2075 3097 
Q 1594 3097 1305 2825 
Q 1016 2553 972 2059 
L 3022 2063 
z
" transform="scale(0.015625)"/>
       <path id="DejaVuSans-7a" d="M 353 3500 
L 3084 3500 
L 3084 2975 
L 922 459 
L 3084 459 
L 3084 0 
L 275 0 
L 275 525 
L 2438 3041 
L 353 3041 
L 353 3500 
z
" transform="scale(0.015625)"/>
      </defs>
      <use xlink:href="#DejaVuSans-42"/>
      <use xlink:href="#DejaVuSans-65" x="68.603516"/>
      <use xlink:href="#DejaVuSans-7a" x="130.126953"/>
      <use xlink:href="#DejaVuSans-20" x="182.617188"/>
      <use xlink:href="#DejaVuSans-73" x="214.404297"/>
      <use xlink:href="#DejaVuSans-7a" x="266.503906"/>
      <use xlink:href="#DejaVuSans-75" x="318.994141"/>
      <use xlink:href="#DejaVuSans-6d" x="382.373047"/>
      <use xlink:href="#DejaVuSans-75" x="479.785156"/>
     </g>
    </g>
    <g id="PathCollection_4">
     <g>
      <use xlink:href="#mbeb21c5bee" x="318.046562" y="84.801688" style="fill: #ff0000; stroke: #ff0000"/>
     </g>
    </g>
    <g id="text_18">
     <!-- Z szumem -->
     <g transform="translate(336.046562 87.426688) scale(0.1 -0.1)">
      <defs>
       <path id="DejaVuSans-5a" d="M 359 4666 
L 4025 4666 
L 4025 4184 
L 1075 531 
L 4097 531 
L 4097 0 
L 288 0 
L 288 481 
L 3238 4134 
L 359 4134 
L 359 4666 
z
" transform="scale(0.015625)"/>
      </defs>
      <use xlink:href="#DejaVuSans-5a"/>
      <use xlink:href="#DejaVuSans-20" x="68.505859"/>
      <use xlink:href="#DejaVuSans-73" x="100.292969"/>
      <use xlink:href="#DejaVuSans-7a" x="152.392578"/>
      <use xlink:href="#DejaVuSans-75" x="204.882812"/>
      <use xlink:href="#DejaVuSans-6d" x="268.261719"/>
      <use xlink:href="#DejaVuSans-65" x="365.673828"/>
      <use xlink:href="#DejaVuSans-6d" x="427.197266"/>
     </g>
    </g>
    <g id="line2d_16">
     <path d="M 308.046562 98.604813 
L 318.046562 98.604813 
L 328.046562 98.604813 
" style="fill: none; stroke: #008000; stroke-width: 1.5; stroke-linecap: square"/>
    </g>
    <g id="text_19">
     <!-- aproksymacja -->
     <g transform="translate(336.046562 102.104813) scale(0.1 -0.1)">
      <defs>
       <path id="DejaVuSans-70" d="M 1159 525 
L 1159 -1331 
L 581 -1331 
L 581 3500 
L 1159 3500 
L 1159 2969 
Q 1341 3281 1617 3432 
Q 1894 3584 2278 3584 
Q 2916 3584 3314 3078 
Q 3713 2572 3713 1747 
Q 3713 922 3314 415 
Q 2916 -91 2278 -91 
Q 1894 -91 1617 61 
Q 1341 213 1159 525 
z
M 3116 1747 
Q 3116 2381 2855 2742 
Q 2594 3103 2138 3103 
Q 1681 3103 1420 2742 
Q 1159 2381 1159 1747 
Q 1159 1113 1420 752 
Q 1681 391 2138 391 
Q 2594 391 2855 752 
Q 3116 1113 3116 1747 
z
" transform="scale(0.015625)"/>
       <path id="DejaVuSans-72" d="M 2631 2963 
Q 2534 3019 2420 3045 
Q 2306 3072 2169 3072 
Q 1681 3072 1420 2755 
Q 1159 2438 1159 1844 
L 1159 0 
L 581 0 
L 581 3500 
L 1159 3500 
L 1159 2956 
Q 1341 3275 1631 3429 
Q 1922 3584 2338 3584 
Q 2397 3584 2469 3576 
Q 2541 3569 2628 3553 
L 2631 2963 
z
" transform="scale(0.015625)"/>
       <path id="DejaVuSans-6f" d="M 1959 3097 
Q 1497 3097 1228 2736 
Q 959 2375 959 1747 
Q 959 1119 1226 758 
Q 1494 397 1959 397 
Q 2419 397 2687 759 
Q 2956 1122 2956 1747 
Q 2956 2369 2687 2733 
Q 2419 3097 1959 3097 
z
M 1959 3584 
Q 2709 3584 3137 3096 
Q 3566 2609 3566 1747 
Q 3566 888 3137 398 
Q 2709 -91 1959 -91 
Q 1206 -91 779 398 
Q 353 888 353 1747 
Q 353 2609 779 3096 
Q 1206 3584 1959 3584 
z
" transform="scale(0.015625)"/>
       <path id="DejaVuSans-6b" d="M 581 4863 
L 1159 4863 
L 1159 1991 
L 2875 3500 
L 3609 3500 
L 1753 1863 
L 3688 0 
L 2938 0 
L 1159 1709 
L 1159 0 
L 581 0 
L 581 4863 
z
" transform="scale(0.015625)"/>
       <path id="DejaVuSans-63" d="M 3122 3366 
L 3122 2828 
Q 2878 2963 2633 3030 
Q 2388 3097 2138 3097 
Q 1578 3097 1268 2742 
Q 959 2388 959 1747 
Q 959 1106 1268 751 
Q 1578 397 2138 397 
Q 2388 397 2633 464 
Q 2878 531 3122 666 
L 3122 134 
Q 2881 22 2623 -34 
Q 2366 -91 2075 -91 
Q 1284 -91 818 406 
Q 353 903 353 1747 
Q 353 2603 823 3093 
Q 1294 3584 2113 3584 
Q 2378 3584 2631 3529 
Q 2884 3475 3122 3366 
z
" transform="scale(0.015625)"/>
       <path id="DejaVuSans-6a" d="M 603 3500 
L 1178 3500 
L 1178 -63 
Q 1178 -731 923 -1031 
Q 669 -1331 103 -1331 
L -116 -1331 
L -116 -844 
L 38 -844 
Q 366 -844 484 -692 
Q 603 -541 603 -63 
L 603 3500 
z
M 603 4863 
L 1178 4863 
L 1178 4134 
L 603 4134 
L 603 4863 
z
" transform="scale(0.015625)"/>
      </defs>
      <use xlink:href="#DejaVuSans-61"/>
      <use xlink:href="#DejaVuSans-70" x="61.279297"/>
      <use xlink:href="#DejaVuSans-72" x="124.755859"/>
      <use xlink:href="#DejaVuSans-6f" x="163.619141"/>
      <use xlink:href="#DejaVuSans-6b" x="224.800781"/>
      <use xlink:href="#DejaVuSans-73" x="282.710938"/>
      <use xlink:href="#DejaVuSans-79" x="334.810547"/>
      <use xlink:href="#DejaVuSans-6d" x="393.990234"/>
      <use xlink:href="#DejaVuSans-61" x="491.402344"/>
      <use xlink:href="#DejaVuSans-63" x="552.681641"/>
      <use xlink:href="#DejaVuSans-6a" x="607.662109"/>
      <use xlink:href="#DejaVuSans-61" x="635.445312"/>
     </g>
    </g>
   </g>
  </g>
 </g>
 <defs>
  <clipPath id="p83a5849612">
   <rect x="57.6" y="41.472" width="357.12" height="266.112"/>
  </clipPath>
 </defs>
</svg>
