<?xml version="1.0" encoding="utf-8" standalone="no"?>
<!DOCTYPE svg PUBLIC "-//W3C//DTD SVG 1.1//EN"
  "http://www.w3.org/Graphics/SVG/1.1/DTD/svg11.dtd">
<svg xmlns:xlink="http://www.w3.org/1999/xlink" width="460.8pt" height="345.6pt" viewBox="0 0 460.8 345.6" xmlns="http://www.w3.org/2000/svg" version="1.1">
 <metadata>
  <rdf:RDF xmlns:dc="http://purl.org/dc/elements/1.1/" xmlns:cc="http://creativecommons.org/ns#" xmlns:rdf="http://www.w3.org/1999/02/22-rdf-syntax-ns#">
   <cc:Work>
    <dc:type rdf:resource="http://purl.org/dc/dcmitype/StillImage"/>
    <dc:date>2022-12-29T13:22:19.933592</dc:date>
    <dc:format>image/svg+xml</dc:format>
    <dc:creator>
     <cc:Agent>
      <dc:title>Matplotlib v3.6.2, https://matplotlib.org/</dc:title>
     </cc:Agent>
    </dc:creator>
   </cc:Work>
  </rdf:RDF>
 </metadata>
 <defs>
  <style type="text/css">*{stroke-linejoin: round; stroke-linecap: butt}</style>
 </defs>
 <g id="figure_1">
  <g id="patch_1">
   <path d="M 0 345.6 
L 460.8 345.6 
L 460.8 0 
L 0 0 
z
" style="fill: #ffffff"/>
  </g>
  <g id="axes_1">
   <g id="patch_2">
    <path d="M 57.6 307.584 
L 414.72 307.584 
L 414.72 41.472 
L 57.6 41.472 
z
" style="fill: #ffffff"/>
   </g>
   <g id="matplotlib.axis_1">
    <g id="xtick_1">
     <g id="line2d_1">
      <defs>
       <path id="md164e35365" d="M 0 0 
L 0 3.5 
" style="stroke: #000000; stroke-width: 0.8"/>
      </defs>
      <g>
       <use xlink:href="#md164e35365" x="73.832727" y="307.584" style="stroke: #000000; stroke-width: 0.8"/>
      </g>
     </g>
     <g id="text_1">
      <!-- 10 -->
      <g transform="translate(67.470227 322.182437) scale(0.1 -0.1)">
       <defs>
        <path id="DejaVuSans-31" d="M 794 531 
L 1825 531 
L 1825 4091 
L 703 3866 
L 703 4441 
L 1819 4666 
L 2450 4666 
L 2450 531 
L 3481 531 
L 3481 0 
L 794 0 
L 794 531 
z
" transform="scale(0.015625)"/>
        <path id="DejaVuSans-30" d="M 2034 4250 
Q 1547 4250 1301 3770 
Q 1056 3291 1056 2328 
Q 1056 1369 1301 889 
Q 1547 409 2034 409 
Q 2525 409 2770 889 
Q 3016 1369 3016 2328 
Q 3016 3291 2770 3770 
Q 2525 4250 2034 4250 
z
M 2034 4750 
Q 2819 4750 3233 4129 
Q 3647 3509 3647 2328 
Q 3647 1150 3233 529 
Q 2819 -91 2034 -91 
Q 1250 -91 836 529 
Q 422 1150 422 2328 
Q 422 3509 836 4129 
Q 1250 4750 2034 4750 
z
" transform="scale(0.015625)"/>
       </defs>
       <use xlink:href="#DejaVuSans-31"/>
       <use xlink:href="#DejaVuSans-30" x="63.623047"/>
      </g>
     </g>
    </g>
    <g id="xtick_2">
     <g id="line2d_2">
      <g>
       <use xlink:href="#md164e35365" x="139.419504" y="307.584" style="stroke: #000000; stroke-width: 0.8"/>
      </g>
     </g>
     <g id="text_2">
      <!-- 12 -->
      <g transform="translate(133.057004 322.182437) scale(0.1 -0.1)">
       <defs>
        <path id="DejaVuSans-32" d="M 1228 531 
L 3431 531 
L 3431 0 
L 469 0 
L 469 531 
Q 828 903 1448 1529 
Q 2069 2156 2228 2338 
Q 2531 2678 2651 2914 
Q 2772 3150 2772 3378 
Q 2772 3750 2511 3984 
Q 2250 4219 1831 4219 
Q 1534 4219 1204 4116 
Q 875 4013 500 3803 
L 500 4441 
Q 881 4594 1212 4672 
Q 1544 4750 1819 4750 
Q 2544 4750 2975 4387 
Q 3406 4025 3406 3419 
Q 3406 3131 3298 2873 
Q 3191 2616 2906 2266 
Q 2828 2175 2409 1742 
Q 1991 1309 1228 531 
z
" transform="scale(0.015625)"/>
       </defs>
       <use xlink:href="#DejaVuSans-31"/>
       <use xlink:href="#DejaVuSans-32" x="63.623047"/>
      </g>
     </g>
    </g>
    <g id="xtick_3">
     <g id="line2d_3">
      <g>
       <use xlink:href="#md164e35365" x="205.006281" y="307.584" style="stroke: #000000; stroke-width: 0.8"/>
      </g>
     </g>
     <g id="text_3">
      <!-- 14 -->
      <g transform="translate(198.643781 322.182437) scale(0.1 -0.1)">
       <defs>
        <path id="DejaVuSans-34" d="M 2419 4116 
L 825 1625 
L 2419 1625 
L 2419 4116 
z
M 2253 4666 
L 3047 4666 
L 3047 1625 
L 3713 1625 
L 3713 1100 
L 3047 1100 
L 3047 0 
L 2419 0 
L 2419 1100 
L 313 1100 
L 313 1709 
L 2253 4666 
z
" transform="scale(0.015625)"/>
       </defs>
       <use xlink:href="#DejaVuSans-31"/>
       <use xlink:href="#DejaVuSans-34" x="63.623047"/>
      </g>
     </g>
    </g>
    <g id="xtick_4">
     <g id="line2d_4">
      <g>
       <use xlink:href="#md164e35365" x="270.593058" y="307.584" style="stroke: #000000; stroke-width: 0.8"/>
      </g>
     </g>
     <g id="text_4">
      <!-- 16 -->
      <g transform="translate(264.230558 322.182437) scale(0.1 -0.1)">
       <defs>
        <path id="DejaVuSans-36" d="M 2113 2584 
Q 1688 2584 1439 2293 
Q 1191 2003 1191 1497 
Q 1191 994 1439 701 
Q 1688 409 2113 409 
Q 2538 409 2786 701 
Q 3034 994 3034 1497 
Q 3034 2003 2786 2293 
Q 2538 2584 2113 2584 
z
M 3366 4563 
L 3366 3988 
Q 3128 4100 2886 4159 
Q 2644 4219 2406 4219 
Q 1781 4219 1451 3797 
Q 1122 3375 1075 2522 
Q 1259 2794 1537 2939 
Q 1816 3084 2150 3084 
Q 2853 3084 3261 2657 
Q 3669 2231 3669 1497 
Q 3669 778 3244 343 
Q 2819 -91 2113 -91 
Q 1303 -91 875 529 
Q 447 1150 447 2328 
Q 447 3434 972 4092 
Q 1497 4750 2381 4750 
Q 2619 4750 2861 4703 
Q 3103 4656 3366 4563 
z
" transform="scale(0.015625)"/>
       </defs>
       <use xlink:href="#DejaVuSans-31"/>
       <use xlink:href="#DejaVuSans-36" x="63.623047"/>
      </g>
     </g>
    </g>
    <g id="xtick_5">
     <g id="line2d_5">
      <g>
       <use xlink:href="#md164e35365" x="336.179835" y="307.584" style="stroke: #000000; stroke-width: 0.8"/>
      </g>
     </g>
     <g id="text_5">
      <!-- 18 -->
      <g transform="translate(329.817335 322.182437) scale(0.1 -0.1)">
       <defs>
        <path id="DejaVuSans-38" d="M 2034 2216 
Q 1584 2216 1326 1975 
Q 1069 1734 1069 1313 
Q 1069 891 1326 650 
Q 1584 409 2034 409 
Q 2484 409 2743 651 
Q 3003 894 3003 1313 
Q 3003 1734 2745 1975 
Q 2488 2216 2034 2216 
z
M 1403 2484 
Q 997 2584 770 2862 
Q 544 3141 544 3541 
Q 544 4100 942 4425 
Q 1341 4750 2034 4750 
Q 2731 4750 3128 4425 
Q 3525 4100 3525 3541 
Q 3525 3141 3298 2862 
Q 3072 2584 2669 2484 
Q 3125 2378 3379 2068 
Q 3634 1759 3634 1313 
Q 3634 634 3220 271 
Q 2806 -91 2034 -91 
Q 1263 -91 848 271 
Q 434 634 434 1313 
Q 434 1759 690 2068 
Q 947 2378 1403 2484 
z
M 1172 3481 
Q 1172 3119 1398 2916 
Q 1625 2713 2034 2713 
Q 2441 2713 2670 2916 
Q 2900 3119 2900 3481 
Q 2900 3844 2670 4047 
Q 2441 4250 2034 4250 
Q 1625 4250 1398 4047 
Q 1172 3844 1172 3481 
z
" transform="scale(0.015625)"/>
       </defs>
       <use xlink:href="#DejaVuSans-31"/>
       <use xlink:href="#DejaVuSans-38" x="63.623047"/>
      </g>
     </g>
    </g>
    <g id="xtick_6">
     <g id="line2d_6">
      <g>
       <use xlink:href="#md164e35365" x="401.766612" y="307.584" style="stroke: #000000; stroke-width: 0.8"/>
      </g>
     </g>
     <g id="text_6">
      <!-- 20 -->
      <g transform="translate(395.404112 322.182437) scale(0.1 -0.1)">
       <use xlink:href="#DejaVuSans-32"/>
       <use xlink:href="#DejaVuSans-30" x="63.623047"/>
      </g>
     </g>
    </g>
    <g id="text_7">
     <!-- x -->
     <g transform="translate(233.200625 335.860562) scale(0.1 -0.1)">
      <defs>
       <path id="DejaVuSans-78" d="M 3513 3500 
L 2247 1797 
L 3578 0 
L 2900 0 
L 1881 1375 
L 863 0 
L 184 0 
L 1544 1831 
L 300 3500 
L 978 3500 
L 1906 2253 
L 2834 3500 
L 3513 3500 
z
" transform="scale(0.015625)"/>
      </defs>
      <use xlink:href="#DejaVuSans-78"/>
     </g>
    </g>
   </g>
   <g id="matplotlib.axis_2">
    <g id="ytick_1">
     <g id="line2d_7">
      <defs>
       <path id="mb09319fe8d" d="M 0 0 
L -3.5 0 
" style="stroke: #000000; stroke-width: 0.8"/>
      </defs>
      <g>
       <use xlink:href="#mb09319fe8d" x="57.6" y="301.240765" style="stroke: #000000; stroke-width: 0.8"/>
      </g>
     </g>
     <g id="text_8">
      <!-- −70 -->
      <g transform="translate(29.495313 305.039983) scale(0.1 -0.1)">
       <defs>
        <path id="DejaVuSans-2212" d="M 678 2272 
L 4684 2272 
L 4684 1741 
L 678 1741 
L 678 2272 
z
" transform="scale(0.015625)"/>
        <path id="DejaVuSans-37" d="M 525 4666 
L 3525 4666 
L 3525 4397 
L 1831 0 
L 1172 0 
L 2766 4134 
L 525 4134 
L 525 4666 
z
" transform="scale(0.015625)"/>
       </defs>
       <use xlink:href="#DejaVuSans-2212"/>
       <use xlink:href="#DejaVuSans-37" x="83.789062"/>
       <use xlink:href="#DejaVuSans-30" x="147.412109"/>
      </g>
     </g>
    </g>
    <g id="ytick_2">
     <g id="line2d_8">
      <g>
       <use xlink:href="#mb09319fe8d" x="57.6" y="262.725741" style="stroke: #000000; stroke-width: 0.8"/>
      </g>
     </g>
     <g id="text_9">
      <!-- −60 -->
      <g transform="translate(29.495313 266.52496) scale(0.1 -0.1)">
       <use xlink:href="#DejaVuSans-2212"/>
       <use xlink:href="#DejaVuSans-36" x="83.789062"/>
       <use xlink:href="#DejaVuSans-30" x="147.412109"/>
      </g>
     </g>
    </g>
    <g id="ytick_3">
     <g id="line2d_9">
      <g>
       <use xlink:href="#mb09319fe8d" x="57.6" y="224.210717" style="stroke: #000000; stroke-width: 0.8"/>
      </g>
     </g>
     <g id="text_10">
      <!-- −50 -->
      <g transform="translate(29.495313 228.009936) scale(0.1 -0.1)">
       <defs>
        <path id="DejaVuSans-35" d="M 691 4666 
L 3169 4666 
L 3169 4134 
L 1269 4134 
L 1269 2991 
Q 1406 3038 1543 3061 
Q 1681 3084 1819 3084 
Q 2600 3084 3056 2656 
Q 3513 2228 3513 1497 
Q 3513 744 3044 326 
Q 2575 -91 1722 -91 
Q 1428 -91 1123 -41 
Q 819 9 494 109 
L 494 744 
Q 775 591 1075 516 
Q 1375 441 1709 441 
Q 2250 441 2565 725 
Q 2881 1009 2881 1497 
Q 2881 1984 2565 2268 
Q 2250 2553 1709 2553 
Q 1456 2553 1204 2497 
Q 953 2441 691 2322 
L 691 4666 
z
" transform="scale(0.015625)"/>
       </defs>
       <use xlink:href="#DejaVuSans-2212"/>
       <use xlink:href="#DejaVuSans-35" x="83.789062"/>
       <use xlink:href="#DejaVuSans-30" x="147.412109"/>
      </g>
     </g>
    </g>
    <g id="ytick_4">
     <g id="line2d_10">
      <g>
       <use xlink:href="#mb09319fe8d" x="57.6" y="185.695693" style="stroke: #000000; stroke-width: 0.8"/>
      </g>
     </g>
     <g id="text_11">
      <!-- −40 -->
      <g transform="translate(29.495313 189.494912) scale(0.1 -0.1)">
       <use xlink:href="#DejaVuSans-2212"/>
       <use xlink:href="#DejaVuSans-34" x="83.789062"/>
       <use xlink:href="#DejaVuSans-30" x="147.412109"/>
      </g>
     </g>
    </g>
    <g id="ytick_5">
     <g id="line2d_11">
      <g>
       <use xlink:href="#mb09319fe8d" x="57.6" y="147.180669" style="stroke: #000000; stroke-width: 0.8"/>
      </g>
     </g>
     <g id="text_12">
      <!-- −30 -->
      <g transform="translate(29.495313 150.979888) scale(0.1 -0.1)">
       <defs>
        <path id="DejaVuSans-33" d="M 2597 2516 
Q 3050 2419 3304 2112 
Q 3559 1806 3559 1356 
Q 3559 666 3084 287 
Q 2609 -91 1734 -91 
Q 1441 -91 1130 -33 
Q 819 25 488 141 
L 488 750 
Q 750 597 1062 519 
Q 1375 441 1716 441 
Q 2309 441 2620 675 
Q 2931 909 2931 1356 
Q 2931 1769 2642 2001 
Q 2353 2234 1838 2234 
L 1294 2234 
L 1294 2753 
L 1863 2753 
Q 2328 2753 2575 2939 
Q 2822 3125 2822 3475 
Q 2822 3834 2567 4026 
Q 2313 4219 1838 4219 
Q 1578 4219 1281 4162 
Q 984 4106 628 3988 
L 628 4550 
Q 988 4650 1302 4700 
Q 1616 4750 1894 4750 
Q 2613 4750 3031 4423 
Q 3450 4097 3450 3541 
Q 3450 3153 3228 2886 
Q 3006 2619 2597 2516 
z
" transform="scale(0.015625)"/>
       </defs>
       <use xlink:href="#DejaVuSans-2212"/>
       <use xlink:href="#DejaVuSans-33" x="83.789062"/>
       <use xlink:href="#DejaVuSans-30" x="147.412109"/>
      </g>
     </g>
    </g>
    <g id="ytick_6">
     <g id="line2d_12">
      <g>
       <use xlink:href="#mb09319fe8d" x="57.6" y="108.665646" style="stroke: #000000; stroke-width: 0.8"/>
      </g>
     </g>
     <g id="text_13">
      <!-- −20 -->
      <g transform="translate(29.495313 112.464864) scale(0.1 -0.1)">
       <use xlink:href="#DejaVuSans-2212"/>
       <use xlink:href="#DejaVuSans-32" x="83.789062"/>
       <use xlink:href="#DejaVuSans-30" x="147.412109"/>
      </g>
     </g>
    </g>
    <g id="ytick_7">
     <g id="line2d_13">
      <g>
       <use xlink:href="#mb09319fe8d" x="57.6" y="70.150622" style="stroke: #000000; stroke-width: 0.8"/>
      </g>
     </g>
     <g id="text_14">
      <!-- −10 -->
      <g transform="translate(29.495313 73.949841) scale(0.1 -0.1)">
       <use xlink:href="#DejaVuSans-2212"/>
       <use xlink:href="#DejaVuSans-31" x="83.789062"/>
       <use xlink:href="#DejaVuSans-30" x="147.412109"/>
      </g>
     </g>
    </g>
    <g id="text_15">
     <!-- y -->
     <g transform="translate(23.415625 177.487375) rotate(-90) scale(0.1 -0.1)">
      <defs>
       <path id="DejaVuSans-79" d="M 2059 -325 
Q 1816 -950 1584 -1140 
Q 1353 -1331 966 -1331 
L 506 -1331 
L 506 -850 
L 844 -850 
Q 1081 -850 1212 -737 
Q 1344 -625 1503 -206 
L 1606 56 
L 191 3500 
L 800 3500 
L 1894 763 
L 2988 3500 
L 3597 3500 
L 2059 -325 
z
" transform="scale(0.015625)"/>
      </defs>
      <use xlink:href="#DejaVuSans-79"/>
     </g>
    </g>
   </g>
   <g id="line2d_14">
    <path d="M 73.832727 128.9989 
L 77.112066 125.210602 
L 80.391405 120.869095 
L 83.670744 116.339386 
L 86.950083 111.987379 
L 90.229421 108.148874 
L 93.50876 105.101385 
L 96.788099 103.041305 
L 100.067438 102.068421 
L 103.346777 102.179148 
L 106.626116 103.269063 
L 109.905455 105.144493 
L 113.184793 107.542095 
L 116.464132 110.154662 
L 119.743471 112.660816 
L 123.02281 114.755934 
L 126.302149 116.181493 
L 129.581488 116.750218 
L 132.860826 116.364753 
L 136.140165 115.028167 
L 139.419504 112.845343 
L 142.698843 110.01511 
L 145.978182 106.813799 
L 149.257521 103.571683 
L 152.53686 100.644402 
L 155.816198 98.381898 
L 159.095537 97.097644 
L 162.374876 97.040907 
L 165.654215 98.37451 
L 168.933554 101.160098 
L 172.212893 105.352208 
L 175.492231 110.801684 
L 178.77157 117.268144 
L 182.050909 124.440383 
L 185.330248 131.962905 
L 188.609587 139.466235 
L 191.888926 146.598299 
L 195.168264 153.054105 
L 198.447603 158.601076 
L 201.726942 163.097801 
L 205.006281 166.504545 
L 208.28562 168.884596 
L 211.564959 170.396368 
L 214.844298 171.276961 
L 218.123636 171.81869 
L 221.402975 172.340701 
L 224.682314 173.15822 
L 227.961653 174.552213 
L 231.240992 176.742191 
L 234.520331 179.864606 
L 237.799669 183.958785 
L 241.079008 188.961682 
L 244.358347 194.711939 
L 247.637686 200.962892 
L 250.917025 207.403395 
L 254.196364 213.684595 
L 257.475702 219.450294 
L 260.755041 224.36818 
L 264.03438 228.159147 
L 267.313719 230.622096 
L 270.593058 231.651988 
L 273.872397 231.249552 
L 277.151736 229.521765 
L 280.431074 226.673065 
L 283.710413 222.98806 
L 286.989752 218.807289 
L 290.269091 214.498171 
L 293.54843 210.423726 
L 296.827769 206.911858 
L 300.107107 204.227907 
L 303.386446 202.552931 
L 306.665785 201.969602 
L 309.945124 202.456993 
L 313.224463 203.894673 
L 316.503802 206.075732 
L 319.78314 208.72755 
L 323.062479 211.538432 
L 326.341818 214.187703 
L 329.621157 216.376559 
L 332.900496 217.856885 
L 336.179835 218.455461 
L 339.459174 218.091359 
L 342.738512 216.784958 
L 346.017851 214.657769 
L 349.29719 211.923048 
L 352.576529 208.868042 
L 355.855868 205.829422 
L 359.135207 203.164096 
L 362.414545 201.218006 
L 365.693884 200.295678 
L 368.973223 200.633241 
L 372.252562 202.377336 
L 375.531901 205.571788 
L 378.81124 210.153229 
L 382.090579 215.956084 
L 385.369917 222.726464 
L 388.649256 230.143751 
L 391.928595 237.84794 
L 395.207934 245.470319 
L 398.487273 252.664765 
" clip-path="url(#pe0ed4d25e7)" style="fill: none; stroke: #1f77b4; stroke-width: 5; stroke-linecap: square"/>
   </g>
   <g id="line2d_15">
    <path d="M 73.832727 135.896293 
L 77.112066 131.075999 
L 80.391405 125.587126 
L 83.670744 119.867017 
L 86.950083 114.354569 
L 90.229421 109.45303 
L 93.50876 105.496158 
L 96.788099 102.720735 
L 100.067438 101.247883 
L 103.346777 101.074806 
L 106.626116 102.07769 
L 109.905455 104.025462 
L 113.184793 106.603158 
L 116.464132 109.442781 
L 119.743471 112.158873 
L 123.02281 114.385585 
L 126.302149 115.811919 
L 129.581488 116.211962 
L 132.860826 115.467381 
L 136.140165 113.580165 
L 139.419504 110.674431 
L 142.698843 106.98713 
L 145.978182 102.848456 
L 149.257521 98.6537 
L 152.53686 94.829036 
L 155.816198 91.794305 
L 159.095537 89.926091 
L 162.374876 89.524398 
L 165.654215 90.785891 
L 168.933554 93.786096 
L 172.212893 98.472152 
L 175.492231 104.666764 
L 178.77157 112.083012 
L 182.050909 120.348709 
L 185.330248 129.038132 
L 188.609587 137.708325 
L 191.888926 145.936732 
L 195.168264 153.356823 
L 198.447603 159.68856 
L 201.726942 164.760991 
L 205.006281 168.524982 
L 208.28562 171.054987 
L 211.564959 172.539703 
L 214.844298 173.262486 
L 218.123636 173.573311 
L 221.402975 173.854778 
L 224.682314 174.485271 
L 227.961653 175.802546 
L 231.240992 178.071059 
L 234.520331 181.455951 
L 237.799669 186.006064 
L 241.079008 191.647502 
L 244.358347 198.188353 
L 247.637686 205.334154 
L 250.917025 212.712747 
L 254.196364 219.906314 
L 257.475702 226.487731 
L 260.755041 232.058031 
L 264.03438 236.281605 
L 267.313719 238.916022 
L 270.593058 239.833796 
L 273.872397 239.034163 
L 277.151736 236.643798 
L 280.431074 232.906418 
L 283.710413 228.162175 
L 286.989752 222.818688 
L 290.269091 217.316259 
L 293.54843 212.090393 
L 296.827769 207.534931 
L 300.107107 203.969082 
L 303.386446 201.611267 
L 306.665785 200.562092 
L 309.945124 200.797951 
L 313.224463 202.175792 
L 316.503802 204.448608 
L 319.78314 207.290235 
L 323.062479 210.327209 
L 326.341818 213.174822 
L 329.621157 215.474121 
L 332.900496 216.926515 
L 336.179835 217.322886 
L 339.459174 216.564566 
L 342.738512 214.674292 
L 346.017851 211.79613 
L 349.29719 208.184371 
L 352.576529 204.182355 
L 355.855868 200.19311 
L 359.135207 196.644411 
L 362.414545 193.951379 
L 365.693884 192.479935 
L 368.973223 192.514386 
L 372.252562 194.232027 
L 375.531901 197.687028 
L 378.81124 202.805048 
L 382.090579 209.389065 
L 385.369917 217.135911 
L 388.649256 225.662037 
L 391.928595 234.53623 
L 395.207934 243.316368 
L 398.487273 251.586946 
" clip-path="url(#pe0ed4d25e7)" style="fill: none; stroke: #ff7f0e; stroke-width: 1.5; stroke-linecap: square"/>
   </g>
   <g id="line2d_16">
    <path d="M 73.832727 110.372325 
L 77.112066 107.539571 
L 80.391405 104.002068 
L 83.670744 100.097757 
L 86.950083 96.185106 
L 90.229421 92.612397 
L 93.50876 89.688038 
L 96.788099 87.654542 
L 100.067438 86.668475 
L 103.346777 86.78815 
L 106.626116 87.970151 
L 109.905455 90.074981 
L 113.184793 92.881306 
L 116.464132 96.107516 
L 119.743471 99.438638 
L 123.02281 102.55621 
L 126.302149 105.168402 
L 129.581488 107.037687 
L 132.860826 108.003585 
L 136.140165 107.998408 
L 139.419504 107.054615 
L 142.698843 105.30308 
L 145.978182 102.962436 
L 149.257521 100.320425 
L 152.53686 97.708915 
L 155.816198 95.474806 
L 159.095537 93.949428 
L 162.374876 93.419141 
L 165.654215 94.099783 
L 168.933554 96.117235 
L 172.212893 99.495843 
L 175.492231 104.155736 
L 178.77157 109.919284 
L 182.050909 116.526128 
L 185.330248 123.655441 
L 188.609587 130.953449 
L 191.888926 138.063762 
L 195.168264 144.657818 
L 198.447603 150.462733 
L 201.726942 155.284088 
L 205.006281 159.021628 
L 208.28562 161.676495 
L 211.564959 163.349356 
L 214.844298 164.22962 
L 218.123636 164.576722 
L 221.402975 164.695159 
L 224.682314 164.905531 
L 227.961653 165.514198 
L 231.240992 166.784259 
L 234.520331 168.910487 
L 237.799669 172.000458 
L 241.079008 176.063579 
L 244.358347 181.009014 
L 247.637686 186.652696 
L 250.917025 192.732813 
L 254.196364 198.932402 
L 257.475702 204.907031 
L 260.755041 210.3151 
L 264.03438 214.848077 
L 267.313719 218.257945 
L 270.593058 220.379434 
L 273.872397 221.145034 
L 277.151736 220.591451 
L 280.431074 218.85693 
L 283.710413 216.169669 
L 286.989752 212.828363 
L 290.269091 209.176586 
L 293.54843 205.57332 
L 296.827769 202.362219 
L 300.107107 199.842364 
L 303.386446 198.24309 
L 306.665785 197.705136 
L 309.945124 198.269764 
L 313.224463 199.876823 
L 316.503802 202.371898 
L 319.78314 205.521895 
L 323.062479 209.037654 
L 326.341818 212.601538 
L 329.621157 215.897542 
L 332.900496 218.641187 
L 336.179835 220.606528 
L 339.459174 221.647848 
L 342.738512 221.714075 
L 346.017851 220.85463 
L 349.29719 219.216167 
L 352.576529 217.030483 
L 355.855868 214.594671 
L 359.135207 212.245277 
L 362.414545 210.328763 
L 365.693884 209.170919 
L 368.973223 209.047932 
L 372.252562 210.161712 
L 375.531901 212.621682 
L 378.81124 216.434633 
L 382.090579 221.503596 
L 385.369917 227.635794 
L 388.649256 234.559005 
L 391.928595 241.944859 
L 395.207934 249.437015 
L 398.487273 256.681701 
" clip-path="url(#pe0ed4d25e7)" style="fill: none; stroke: #2ca02c; stroke-width: 1.5; stroke-linecap: square"/>
   </g>
   <g id="line2d_17">
    <path d="M 73.832727 155.647781 
L 77.112066 146.425231 
L 80.391405 135.478624 
L 83.670744 123.65127 
L 86.950083 111.833372 
L 90.229421 100.885831 
L 93.50876 91.566975 
L 96.788099 84.46869 
L 100.067438 79.967649 
L 103.346777 78.195933 
L 106.626116 79.033636 
L 109.905455 82.124069 
L 113.184793 86.910154 
L 116.464132 92.688721 
L 119.743471 98.677809 
L 123.02281 104.090906 
L 126.302149 108.211468 
L 129.581488 110.461003 
L 132.860826 110.454603 
L 136.140165 108.038936 
L 139.419504 103.309243 
L 142.698843 96.603811 
L 145.978182 88.476381 
L 149.257521 79.64892 
L 152.53686 70.948964 
L 155.816198 63.237105 
L 159.095537 57.331085 
L 162.374876 53.933276 
L 165.654215 53.568 
L 168.933554 56.534315 
L 172.212893 62.878458 
L 175.492231 72.388437 
L 178.77157 84.611263 
L 182.050909 98.891286 
L 185.330248 114.426256 
L 188.609587 130.336104 
L 191.888926 145.738339 
L 195.168264 159.823358 
L 198.447603 171.92297 
L 201.726942 181.566062 
L 205.006281 188.516462 
L 208.28562 192.789668 
L 211.564959 194.646991 
L 214.844298 194.567673 
L 218.123636 193.201528 
L 221.402975 191.306365 
L 224.682314 189.675853 
L 227.961653 189.064283 
L 231.240992 190.115025 
L 234.520331 193.299086 
L 237.799669 198.869311 
L 241.079008 206.834352 
L 244.358347 216.954764 
L 247.637686 228.761608 
L 250.917025 241.595928 
L 254.196364 254.665596 
L 257.475702 267.114477 
L 260.755041 278.097735 
L 264.03438 286.856587 
L 267.313719 292.785811 
L 270.593058 295.488 
L 273.872397 294.809697 
L 277.151736 290.856195 
L 280.431074 283.98365 
L 283.710413 274.769213 
L 286.989752 263.961817 
L 290.269091 252.417997 
L 293.54843 241.02845 
L 296.827769 230.641866 
L 300.107107 221.992787 
L 303.386446 215.639924 
L 306.665785 211.920379 
L 309.945124 210.923838 
L 313.224463 212.488986 
L 316.503802 216.222428 
L 319.78314 221.538372 
L 323.062479 227.715492 
L 326.341818 233.965843 
L 329.621157 239.509625 
L 332.900496 243.649078 
L 336.179835 245.83486 
L 339.459174 245.718944 
L 342.738512 243.189268 
L 346.017851 238.383001 
L 349.29719 231.677218 
L 352.576529 223.657784 
L 355.855868 215.069195 
L 359.135207 206.749844 
L 362.414545 199.558467 
L 365.693884 194.298337 
L 368.973223 191.645958 
L 372.252562 192.090635 
L 375.531901 195.890301 
L 378.81124 203.047573 
L 382.090579 213.30817 
L 385.369917 226.18185 
L 388.649256 240.984018 
L 391.928595 256.894305 
L 395.207934 273.026919 
L 398.487273 288.506498 
" clip-path="url(#pe0ed4d25e7)" style="fill: none; stroke: #d62728; stroke-width: 1.5; stroke-linecap: square"/>
   </g>
   <g id="line2d_18">
    <path d="M 73.832727 160.141267 
L 77.112066 155.164099 
L 80.391405 151.995876 
L 83.670744 150.728161 
L 86.950083 151.25525 
L 90.229421 153.28643 
L 93.50876 156.375009 
L 96.788099 159.961493 
L 100.067438 163.427025 
L 103.346777 166.152269 
L 106.626116 167.576449 
L 109.905455 167.251238 
L 113.184793 164.884628 
L 116.464132 160.370846 
L 119.743471 153.803581 
L 123.02281 145.471331 
L 126.302149 135.83522 
L 129.581488 125.491254 
L 132.860826 115.120337 
L 136.140165 105.430489 
L 139.419504 97.096393 
L 142.698843 90.701644 
L 145.978182 86.688833 
L 149.257521 85.321905 
L 152.53686 86.664132 
L 155.816198 90.573654 
L 159.095537 96.716976 
L 162.374876 104.599203 
L 165.654215 113.608312 
L 168.933554 123.069504 
L 172.212893 132.304787 
L 175.492231 140.692463 
L 178.77157 147.721238 
L 182.050909 153.03411 
L 185.330248 156.458153 
L 188.609587 158.017545 
L 191.888926 157.92871 
L 195.168264 156.578022 
L 198.447603 154.48411 
L 201.726942 152.248144 
L 205.006281 150.496593 
L 208.28562 149.821591 
L 211.564959 150.724284 
L 214.844298 153.566247 
L 218.123636 158.533366 
L 221.402975 165.615421 
L 224.682314 174.603261 
L 227.961653 185.103847 
L 231.240992 196.57185 
L 234.520331 208.35503 
L 237.799669 219.74937 
L 241.079008 230.059064 
L 244.358347 238.656041 
L 247.637686 245.033731 
L 250.917025 248.850285 
L 254.196364 249.957421 
L 257.475702 248.412329 
L 260.755041 244.471587 
L 264.03438 238.567638 
L 267.313719 231.269944 
L 270.593058 223.234275 
L 273.872397 215.144676 
L 277.151736 207.653283 
L 280.431074 201.323352 
L 283.710413 196.580586 
L 286.989752 193.677085 
L 290.269091 192.671115 
L 293.54843 193.424501 
L 296.827769 195.617818 
L 300.107107 198.782026 
L 303.386446 202.343675 
L 306.665785 205.679612 
L 309.945124 208.17627 
L 313.224463 209.288206 
L 316.503802 208.590623 
L 319.78314 205.821143 
L 323.062479 200.907063 
L 326.341818 193.975627 
L 329.621157 185.346345 
L 332.900496 175.506025 
L 336.179835 165.068697 
L 339.459174 154.723986 
L 342.738512 145.178512 
L 346.017851 137.09551 
L 349.29719 131.038056 
L 352.576529 127.420928 
L 355.855868 126.475393 
L 359.135207 128.230033 
L 362.414545 132.509327 
L 365.693884 138.950088 
L 368.973223 147.034288 
L 372.252562 156.135325 
L 375.531901 165.573619 
L 378.81124 174.676552 
L 382.090579 182.837417 
L 385.369917 189.568122 
L 388.649256 194.540953 
L 391.928595 197.615686 
L 395.207934 198.849642 
L 398.487273 198.489822 
" clip-path="url(#pe0ed4d25e7)" style="fill: none; stroke: #9467bd; stroke-width: 1.5; stroke-linecap: square"/>
   </g>
   <g id="patch_3">
    <path d="M 57.6 307.584 
L 57.6 41.472 
" style="fill: none; stroke: #000000; stroke-width: 0.8; stroke-linejoin: miter; stroke-linecap: square"/>
   </g>
   <g id="patch_4">
    <path d="M 414.72 307.584 
L 414.72 41.472 
" style="fill: none; stroke: #000000; stroke-width: 0.8; stroke-linejoin: miter; stroke-linecap: square"/>
   </g>
   <g id="patch_5">
    <path d="M 57.6 307.584 
L 414.72 307.584 
" style="fill: none; stroke: #000000; stroke-width: 0.8; stroke-linejoin: miter; stroke-linecap: square"/>
   </g>
   <g id="patch_6">
    <path d="M 57.6 41.472 
L 414.72 41.472 
" style="fill: none; stroke: #000000; stroke-width: 0.8; stroke-linejoin: miter; stroke-linecap: square"/>
   </g>
   <g id="legend_1">
    <g id="patch_7">
     <path d="M 274.521563 122.862625 
L 407.72 122.862625 
Q 409.72 122.862625 409.72 120.862625 
L 409.72 48.472 
Q 409.72 46.472 407.72 46.472 
L 274.521563 46.472 
Q 272.521563 46.472 272.521563 48.472 
L 272.521563 120.862625 
Q 272.521563 122.862625 274.521563 122.862625 
z
" style="fill: #ffffff; opacity: 0.8; stroke: #cccccc; stroke-linejoin: miter"/>
    </g>
    <g id="line2d_19">
     <path d="M 276.521563 54.570438 
L 286.521563 54.570438 
L 296.521563 54.570438 
" style="fill: none; stroke: #1f77b4; stroke-width: 5; stroke-linecap: square"/>
    </g>
    <g id="text_16">
     <!-- G(x) -->
     <g transform="translate(304.521563 58.070438) scale(0.1 -0.1)">
      <defs>
       <path id="DejaVuSans-47" d="M 3809 666 
L 3809 1919 
L 2778 1919 
L 2778 2438 
L 4434 2438 
L 4434 434 
Q 4069 175 3628 42 
Q 3188 -91 2688 -91 
Q 1594 -91 976 548 
Q 359 1188 359 2328 
Q 359 3472 976 4111 
Q 1594 4750 2688 4750 
Q 3144 4750 3555 4637 
Q 3966 4525 4313 4306 
L 4313 3634 
Q 3963 3931 3569 4081 
Q 3175 4231 2741 4231 
Q 1884 4231 1454 3753 
Q 1025 3275 1025 2328 
Q 1025 1384 1454 906 
Q 1884 428 2741 428 
Q 3075 428 3337 486 
Q 3600 544 3809 666 
z
" transform="scale(0.015625)"/>
       <path id="DejaVuSans-28" d="M 1984 4856 
Q 1566 4138 1362 3434 
Q 1159 2731 1159 2009 
Q 1159 1288 1364 580 
Q 1569 -128 1984 -844 
L 1484 -844 
Q 1016 -109 783 600 
Q 550 1309 550 2009 
Q 550 2706 781 3412 
Q 1013 4119 1484 4856 
L 1984 4856 
z
" transform="scale(0.015625)"/>
       <path id="DejaVuSans-29" d="M 513 4856 
L 1013 4856 
Q 1481 4119 1714 3412 
Q 1947 2706 1947 2009 
Q 1947 1309 1714 600 
Q 1481 -109 1013 -844 
L 513 -844 
Q 928 -128 1133 580 
Q 1338 1288 1338 2009 
Q 1338 2731 1133 3434 
Q 928 4138 513 4856 
z
" transform="scale(0.015625)"/>
      </defs>
      <use xlink:href="#DejaVuSans-47"/>
      <use xlink:href="#DejaVuSans-28" x="77.490234"/>
      <use xlink:href="#DejaVuSans-78" x="116.503906"/>
      <use xlink:href="#DejaVuSans-29" x="175.683594"/>
     </g>
    </g>
    <g id="line2d_20">
     <path d="M 276.521563 69.248563 
L 286.521563 69.248563 
L 296.521563 69.248563 
" style="fill: none; stroke: #ff7f0e; stroke-width: 1.5; stroke-linecap: square"/>
    </g>
    <g id="text_17">
     <!-- mu = 0, sigma = 10 -->
     <g transform="translate(304.521563 72.748563) scale(0.1 -0.1)">
      <defs>
       <path id="DejaVuSans-6d" d="M 3328 2828 
Q 3544 3216 3844 3400 
Q 4144 3584 4550 3584 
Q 5097 3584 5394 3201 
Q 5691 2819 5691 2113 
L 5691 0 
L 5113 0 
L 5113 2094 
Q 5113 2597 4934 2840 
Q 4756 3084 4391 3084 
Q 3944 3084 3684 2787 
Q 3425 2491 3425 1978 
L 3425 0 
L 2847 0 
L 2847 2094 
Q 2847 2600 2669 2842 
Q 2491 3084 2119 3084 
Q 1678 3084 1418 2786 
Q 1159 2488 1159 1978 
L 1159 0 
L 581 0 
L 581 3500 
L 1159 3500 
L 1159 2956 
Q 1356 3278 1631 3431 
Q 1906 3584 2284 3584 
Q 2666 3584 2933 3390 
Q 3200 3197 3328 2828 
z
" transform="scale(0.015625)"/>
       <path id="DejaVuSans-75" d="M 544 1381 
L 544 3500 
L 1119 3500 
L 1119 1403 
Q 1119 906 1312 657 
Q 1506 409 1894 409 
Q 2359 409 2629 706 
Q 2900 1003 2900 1516 
L 2900 3500 
L 3475 3500 
L 3475 0 
L 2900 0 
L 2900 538 
Q 2691 219 2414 64 
Q 2138 -91 1772 -91 
Q 1169 -91 856 284 
Q 544 659 544 1381 
z
M 1991 3584 
L 1991 3584 
z
" transform="scale(0.015625)"/>
       <path id="DejaVuSans-20" transform="scale(0.015625)"/>
       <path id="DejaVuSans-3d" d="M 678 2906 
L 4684 2906 
L 4684 2381 
L 678 2381 
L 678 2906 
z
M 678 1631 
L 4684 1631 
L 4684 1100 
L 678 1100 
L 678 1631 
z
" transform="scale(0.015625)"/>
       <path id="DejaVuSans-2c" d="M 750 794 
L 1409 794 
L 1409 256 
L 897 -744 
L 494 -744 
L 750 256 
L 750 794 
z
" transform="scale(0.015625)"/>
       <path id="DejaVuSans-73" d="M 2834 3397 
L 2834 2853 
Q 2591 2978 2328 3040 
Q 2066 3103 1784 3103 
Q 1356 3103 1142 2972 
Q 928 2841 928 2578 
Q 928 2378 1081 2264 
Q 1234 2150 1697 2047 
L 1894 2003 
Q 2506 1872 2764 1633 
Q 3022 1394 3022 966 
Q 3022 478 2636 193 
Q 2250 -91 1575 -91 
Q 1294 -91 989 -36 
Q 684 19 347 128 
L 347 722 
Q 666 556 975 473 
Q 1284 391 1588 391 
Q 1994 391 2212 530 
Q 2431 669 2431 922 
Q 2431 1156 2273 1281 
Q 2116 1406 1581 1522 
L 1381 1569 
Q 847 1681 609 1914 
Q 372 2147 372 2553 
Q 372 3047 722 3315 
Q 1072 3584 1716 3584 
Q 2034 3584 2315 3537 
Q 2597 3491 2834 3397 
z
" transform="scale(0.015625)"/>
       <path id="DejaVuSans-69" d="M 603 3500 
L 1178 3500 
L 1178 0 
L 603 0 
L 603 3500 
z
M 603 4863 
L 1178 4863 
L 1178 4134 
L 603 4134 
L 603 4863 
z
" transform="scale(0.015625)"/>
       <path id="DejaVuSans-67" d="M 2906 1791 
Q 2906 2416 2648 2759 
Q 2391 3103 1925 3103 
Q 1463 3103 1205 2759 
Q 947 2416 947 1791 
Q 947 1169 1205 825 
Q 1463 481 1925 481 
Q 2391 481 2648 825 
Q 2906 1169 2906 1791 
z
M 3481 434 
Q 3481 -459 3084 -895 
Q 2688 -1331 1869 -1331 
Q 1566 -1331 1297 -1286 
Q 1028 -1241 775 -1147 
L 775 -588 
Q 1028 -725 1275 -790 
Q 1522 -856 1778 -856 
Q 2344 -856 2625 -561 
Q 2906 -266 2906 331 
L 2906 616 
Q 2728 306 2450 153 
Q 2172 0 1784 0 
Q 1141 0 747 490 
Q 353 981 353 1791 
Q 353 2603 747 3093 
Q 1141 3584 1784 3584 
Q 2172 3584 2450 3431 
Q 2728 3278 2906 2969 
L 2906 3500 
L 3481 3500 
L 3481 434 
z
" transform="scale(0.015625)"/>
       <path id="DejaVuSans-61" d="M 2194 1759 
Q 1497 1759 1228 1600 
Q 959 1441 959 1056 
Q 959 750 1161 570 
Q 1363 391 1709 391 
Q 2188 391 2477 730 
Q 2766 1069 2766 1631 
L 2766 1759 
L 2194 1759 
z
M 3341 1997 
L 3341 0 
L 2766 0 
L 2766 531 
Q 2569 213 2275 61 
Q 1981 -91 1556 -91 
Q 1019 -91 701 211 
Q 384 513 384 1019 
Q 384 1609 779 1909 
Q 1175 2209 1959 2209 
L 2766 2209 
L 2766 2266 
Q 2766 2663 2505 2880 
Q 2244 3097 1772 3097 
Q 1472 3097 1187 3025 
Q 903 2953 641 2809 
L 641 3341 
Q 956 3463 1253 3523 
Q 1550 3584 1831 3584 
Q 2591 3584 2966 3190 
Q 3341 2797 3341 1997 
z
" transform="scale(0.015625)"/>
      </defs>
      <use xlink:href="#DejaVuSans-6d"/>
      <use xlink:href="#DejaVuSans-75" x="97.412109"/>
      <use xlink:href="#DejaVuSans-20" x="160.791016"/>
      <use xlink:href="#DejaVuSans-3d" x="192.578125"/>
      <use xlink:href="#DejaVuSans-20" x="276.367188"/>
      <use xlink:href="#DejaVuSans-30" x="308.154297"/>
      <use xlink:href="#DejaVuSans-2c" x="371.777344"/>
      <use xlink:href="#DejaVuSans-20" x="403.564453"/>
      <use xlink:href="#DejaVuSans-73" x="435.351562"/>
      <use xlink:href="#DejaVuSans-69" x="487.451172"/>
      <use xlink:href="#DejaVuSans-67" x="515.234375"/>
      <use xlink:href="#DejaVuSans-6d" x="578.710938"/>
      <use xlink:href="#DejaVuSans-61" x="676.123047"/>
      <use xlink:href="#DejaVuSans-20" x="737.402344"/>
      <use xlink:href="#DejaVuSans-3d" x="769.189453"/>
      <use xlink:href="#DejaVuSans-20" x="852.978516"/>
      <use xlink:href="#DejaVuSans-31" x="884.765625"/>
      <use xlink:href="#DejaVuSans-30" x="948.388672"/>
     </g>
    </g>
    <g id="line2d_21">
     <path d="M 276.521563 83.926688 
L 286.521563 83.926688 
L 296.521563 83.926688 
" style="fill: none; stroke: #2ca02c; stroke-width: 1.5; stroke-linecap: square"/>
    </g>
    <g id="text_18">
     <!-- mu = 0, sigma = 20 -->
     <g transform="translate(304.521563 87.426688) scale(0.1 -0.1)">
      <use xlink:href="#DejaVuSans-6d"/>
      <use xlink:href="#DejaVuSans-75" x="97.412109"/>
      <use xlink:href="#DejaVuSans-20" x="160.791016"/>
      <use xlink:href="#DejaVuSans-3d" x="192.578125"/>
      <use xlink:href="#DejaVuSans-20" x="276.367188"/>
      <use xlink:href="#DejaVuSans-30" x="308.154297"/>
      <use xlink:href="#DejaVuSans-2c" x="371.777344"/>
      <use xlink:href="#DejaVuSans-20" x="403.564453"/>
      <use xlink:href="#DejaVuSans-73" x="435.351562"/>
      <use xlink:href="#DejaVuSans-69" x="487.451172"/>
      <use xlink:href="#DejaVuSans-67" x="515.234375"/>
      <use xlink:href="#DejaVuSans-6d" x="578.710938"/>
      <use xlink:href="#DejaVuSans-61" x="676.123047"/>
      <use xlink:href="#DejaVuSans-20" x="737.402344"/>
      <use xlink:href="#DejaVuSans-3d" x="769.189453"/>
      <use xlink:href="#DejaVuSans-20" x="852.978516"/>
      <use xlink:href="#DejaVuSans-32" x="884.765625"/>
      <use xlink:href="#DejaVuSans-30" x="948.388672"/>
     </g>
    </g>
    <g id="line2d_22">
     <path d="M 276.521563 98.604813 
L 286.521563 98.604813 
L 296.521563 98.604813 
" style="fill: none; stroke: #d62728; stroke-width: 1.5; stroke-linecap: square"/>
    </g>
    <g id="text_19">
     <!-- mu = 0, sigma = 40 -->
     <g transform="translate(304.521563 102.104813) scale(0.1 -0.1)">
      <use xlink:href="#DejaVuSans-6d"/>
      <use xlink:href="#DejaVuSans-75" x="97.412109"/>
      <use xlink:href="#DejaVuSans-20" x="160.791016"/>
      <use xlink:href="#DejaVuSans-3d" x="192.578125"/>
      <use xlink:href="#DejaVuSans-20" x="276.367188"/>
      <use xlink:href="#DejaVuSans-30" x="308.154297"/>
      <use xlink:href="#DejaVuSans-2c" x="371.777344"/>
      <use xlink:href="#DejaVuSans-20" x="403.564453"/>
      <use xlink:href="#DejaVuSans-73" x="435.351562"/>
      <use xlink:href="#DejaVuSans-69" x="487.451172"/>
      <use xlink:href="#DejaVuSans-67" x="515.234375"/>
      <use xlink:href="#DejaVuSans-6d" x="578.710938"/>
      <use xlink:href="#DejaVuSans-61" x="676.123047"/>
      <use xlink:href="#DejaVuSans-20" x="737.402344"/>
      <use xlink:href="#DejaVuSans-3d" x="769.189453"/>
      <use xlink:href="#DejaVuSans-20" x="852.978516"/>
      <use xlink:href="#DejaVuSans-34" x="884.765625"/>
      <use xlink:href="#DejaVuSans-30" x="948.388672"/>
     </g>
    </g>
    <g id="line2d_23">
     <path d="M 276.521563 113.282938 
L 286.521563 113.282938 
L 296.521563 113.282938 
" style="fill: none; stroke: #9467bd; stroke-width: 1.5; stroke-linecap: square"/>
    </g>
    <g id="text_20">
     <!-- mu = 0, sigma = 80 -->
     <g transform="translate(304.521563 116.782938) scale(0.1 -0.1)">
      <use xlink:href="#DejaVuSans-6d"/>
      <use xlink:href="#DejaVuSans-75" x="97.412109"/>
      <use xlink:href="#DejaVuSans-20" x="160.791016"/>
      <use xlink:href="#DejaVuSans-3d" x="192.578125"/>
      <use xlink:href="#DejaVuSans-20" x="276.367188"/>
      <use xlink:href="#DejaVuSans-30" x="308.154297"/>
      <use xlink:href="#DejaVuSans-2c" x="371.777344"/>
      <use xlink:href="#DejaVuSans-20" x="403.564453"/>
      <use xlink:href="#DejaVuSans-73" x="435.351562"/>
      <use xlink:href="#DejaVuSans-69" x="487.451172"/>
      <use xlink:href="#DejaVuSans-67" x="515.234375"/>
      <use xlink:href="#DejaVuSans-6d" x="578.710938"/>
      <use xlink:href="#DejaVuSans-61" x="676.123047"/>
      <use xlink:href="#DejaVuSans-20" x="737.402344"/>
      <use xlink:href="#DejaVuSans-3d" x="769.189453"/>
      <use xlink:href="#DejaVuSans-20" x="852.978516"/>
      <use xlink:href="#DejaVuSans-38" x="884.765625"/>
      <use xlink:href="#DejaVuSans-30" x="948.388672"/>
     </g>
    </g>
   </g>
  </g>
 </g>
 <defs>
  <clipPath id="pe0ed4d25e7">
   <rect x="57.6" y="41.472" width="357.12" height="266.112"/>
  </clipPath>
 </defs>
</svg>
